<svg width="24" height="24" viewBox="0 0 24 24" fill="none" xmlns="http://www.w3.org/2000/svg">
<path d="M14.2299 17.9952C14.2194 17.2452 13.7042 14.7617 14.2307 14.2352C14.7573 13.7088 17.24 14.2252 17.9897 14.236M20.9997 20.9986L14.6149 14.6151" stroke="white" stroke-width="1.5" stroke-linecap="round" stroke-linejoin="round"/>
<path d="M9.7698 17.9952C9.7803 17.2452 10.2955 14.7617 9.769 14.2352C9.24247 13.7088 6.75975 14.2252 6.01005 14.236M3 20.9986L9.38478 14.6151" stroke="white" stroke-width="1.5" stroke-linecap="round" stroke-linejoin="round"/>
<path d="M6.00765 9.76084C6.75739 9.77041 9.24092 10.2827 9.76664 9.75536C10.2922 9.22804 9.77284 6.74532 9.76116 5.99543M9.37715 9.36694L3.00195 3.00195" stroke="white" stroke-width="1.5" stroke-linecap="round" stroke-linejoin="round"/>
<path d="M17.9918 9.76084C17.2421 9.77041 14.7585 10.2827 14.2328 9.75536C13.7072 9.22804 14.2266 6.74532 14.2383 5.99543M14.6223 9.36694L20.9975 3.00195" stroke="white" stroke-width="1.5" stroke-linecap="round" stroke-linejoin="round"/>
</svg>
