<svg width="910" height="600" viewBox="0 0 910 600" fill="none" xmlns="http://www.w3.org/2000/svg">
<g clip-path="url(#clip0_419_1940)">
<g filter="url(#filter0_f_419_1940)">
<path d="M171.552 571.594C127.381 559.468 46.6597 525.318 17.2993 499.271C-16.4842 472.085 51.3184 438.991 59.3378 434.059C67.3571 429.128 462.306 220.534 531.292 188.052C600.277 155.57 822.837 214.755 877.083 243.105C921.301 266.213 890.922 284.123 885.229 288.995C879.535 293.867 551.06 488.091 432.736 547.828C343.129 593.067 258.255 595.398 171.552 571.594Z" fill="black" fill-opacity="0.2"/>
</g>
<path fill-rule="evenodd" clip-rule="evenodd" d="M482.728 355.451L437.958 336.046L437.947 336.071C437.66 335.941 437.371 335.814 437.079 335.692C410.421 324.528 373.5 352.29 354.613 397.702C335.726 443.114 342.026 488.978 368.684 500.142C369.048 500.295 369.415 500.44 369.783 500.578L412.962 519.322L435.328 466.789C441.345 458.38 446.739 448.737 451.15 438.132C455.217 428.352 458.117 418.551 459.896 409.081L482.728 355.451Z" fill="black"/>
<ellipse cx="52.3547" cy="88.9425" rx="52.3547" ry="88.9425" transform="matrix(0.921953 0.38611 -0.384195 0.923749 433.168 334.843)" fill="black"/>
<g filter="url(#filter1_i_419_1940)">
<ellipse cx="39.2679" cy="66.71" rx="39.2679" ry="66.71" transform="matrix(0.921953 0.38611 -0.384195 0.923749 438.203 360.441)" fill="url(#paint0_linear_419_1940)"/>
</g>
<g filter="url(#filter2_di_419_1940)">
<path fill-rule="evenodd" clip-rule="evenodd" d="M445.983 389.749C440.41 393.234 434.954 398.334 430.075 404.706L442.026 424.307C443.504 422.482 445.104 420.953 446.745 419.779L445.983 389.749ZM447.693 457.128C445.254 458.161 442.832 458.35 440.677 457.506L424.685 487.003C425.569 487.553 426.496 488.034 427.468 488.441C433.848 491.113 441.171 490.21 448.438 486.482L447.693 457.128ZM450.701 485.229L449.957 455.929C451.892 454.702 453.788 452.973 455.517 450.84L467.23 470.051C462.161 476.605 456.482 481.792 450.701 485.229ZM449.005 418.403L448.244 388.427C455.789 384.325 463.436 383.242 470.066 386.018C471.917 386.794 473.611 387.837 475.143 389.119L459.004 418.888C458.412 418.394 457.758 417.992 457.043 417.693C454.596 416.668 451.792 416.998 449.005 418.403ZM478.853 449.829C476.036 456.601 472.575 462.743 468.712 468.072L456.996 448.857C458.303 446.952 459.478 444.801 460.453 442.456C460.572 442.171 460.686 441.885 460.797 441.6L480.239 446.302C479.804 447.477 479.342 448.653 478.853 449.829ZM440.549 426.291L428.6 406.694C424.826 411.952 421.443 417.988 418.681 424.63C418.12 425.977 417.595 427.326 417.106 428.673L436.797 433.434C436.896 433.182 436.997 432.929 437.102 432.677C438.075 430.338 439.246 428.193 440.549 426.291ZM481.014 444.126C484.25 434.679 485.749 425.364 485.625 417.004L463.073 430.843C462.995 433.54 462.499 436.456 461.562 439.422L481.014 444.126ZM436.025 435.61C434.901 439.134 434.399 442.591 434.48 445.695L411.973 459.507C411.556 450.783 412.968 440.901 416.344 430.851L436.025 435.61ZM412.152 462.09L434.691 448.259C435.193 451.779 436.55 454.652 438.69 456.357L422.797 485.671C416.731 480.853 413.102 472.4 412.152 462.09ZM485.53 414.368L463.01 428.188C462.772 425.214 461.968 422.623 460.635 420.693L476.875 390.739C482.008 396.088 484.961 404.458 485.53 414.368Z" fill="#4C4C4C"/>
</g>
<path fill-rule="evenodd" clip-rule="evenodd" d="M482.677 354.518L437.907 335.112L437.902 335.124C437.626 334.999 437.348 334.877 437.067 334.76C410.409 323.595 373.488 351.358 354.602 396.77C335.715 442.182 342.015 488.046 368.673 499.21C368.942 499.323 369.212 499.432 369.483 499.536L412.911 518.388L435.216 465.997C441.274 457.555 446.703 447.864 451.138 437.2C455.23 427.362 458.139 417.503 459.916 407.98L482.677 354.518Z" fill="black"/>
<path d="M496.047 457.421C477.175 502.797 440.265 530.531 413.607 519.367C386.949 508.203 380.638 462.368 399.51 416.992C418.382 371.616 456.362 341.437 483.02 352.602C509.678 363.766 514.92 412.045 496.047 457.421Z" fill="#2D2C2C"/>
<g filter="url(#filter3_i_419_1940)">
<ellipse cx="36.802" cy="64.334" rx="36.802" ry="64.334" transform="matrix(0.918177 0.396377 -0.370986 0.928609 438.382 362.906)" fill="url(#paint1_linear_419_1940)"/>
</g>
<g filter="url(#filter4_di_419_1940)">
<path fill-rule="evenodd" clip-rule="evenodd" d="M472.05 451.037C462.791 471.809 446.77 484.881 433.966 482.437L443.288 459.575C448.727 459.288 454.899 454.05 459.024 446.041L472.05 451.037ZM474.598 444.627C481.971 423.619 479.76 403.097 469.575 395.108L460.257 417.961C463.813 422.388 464.443 430.854 461.651 439.662L474.598 444.627ZM436.781 430.123C441.047 420.731 448.125 414.609 454.125 414.804L463.381 392.104C450.104 388.943 433.097 402.949 423.816 425.151L436.781 430.123ZM434.463 436.621L421.418 431.617C414.68 452.366 417.278 472.291 427.654 479.722L436.915 457.01C433.191 453.067 432.222 445.132 434.463 436.621Z" fill="#A9A8A8"/>
</g>
<path fill-rule="evenodd" clip-rule="evenodd" d="M810.969 179.729L771.721 170.632L771.715 170.658C771.466 170.595 771.216 170.536 770.964 170.481C747.652 165.382 721.784 193.433 713.186 233.135C704.588 272.838 716.515 309.157 739.827 314.256C740.167 314.331 740.508 314.398 740.849 314.458L778.633 323.237L788.988 277.281C792.636 269.543 795.593 260.891 797.605 251.602C799.461 243.035 800.36 234.625 800.396 226.652L810.969 179.729Z" fill="black"/>
<ellipse cx="43.2393" cy="73.4429" rx="43.2393" ry="73.4429" transform="matrix(0.976187 0.213537 -0.211819 0.978055 767.699 170.37)" fill="black"/>
<g filter="url(#filter5_i_419_1940)">
<ellipse cx="32.4311" cy="55.0852" rx="32.4311" ry="55.0852" transform="matrix(0.976187 0.213537 -0.211819 0.978055 775.569 190.412)" fill="url(#paint2_linear_419_1940)"/>
</g>
<g filter="url(#filter6_di_419_1940)">
<path fill-rule="evenodd" clip-rule="evenodd" d="M786.271 213.041C782.256 216.704 778.577 221.664 775.557 227.573L788.188 241.731C789.119 240.025 790.192 238.541 791.354 237.341L786.271 213.041ZM797.67 267.542C795.838 268.747 793.894 269.261 792.015 268.891L783.405 295.232C784.203 295.546 785.026 295.797 785.873 295.983C791.458 297.204 797.277 295.376 802.63 291.258L797.67 267.542ZM804.281 289.902L799.331 266.232C800.719 264.949 802.001 263.265 803.089 261.278L815.441 275.122C812.299 281.195 808.461 286.25 804.281 289.902ZM792.984 235.886L787.912 211.633C793.427 207.185 799.473 205.17 805.266 206.437C806.887 206.792 808.42 207.388 809.857 208.203L801.17 234.783C800.619 234.474 800.032 234.247 799.411 234.111C797.27 233.643 795.041 234.329 792.984 235.886ZM821.879 256.965C820.597 262.886 818.697 268.39 816.35 273.295L803.996 259.448C804.777 257.702 805.413 255.776 805.859 253.721C805.913 253.47 805.964 253.22 806.011 252.971L822.481 253.894C822.302 254.913 822.102 255.937 821.879 256.965ZM787.284 243.564L774.654 229.408C772.369 234.241 770.518 239.648 769.26 245.455C769.005 246.633 768.779 247.807 768.581 248.974L785.302 249.911C785.345 249.692 785.39 249.473 785.437 249.254C785.879 247.213 786.51 245.3 787.284 243.564ZM822.787 252.011C824.012 243.861 823.848 236.078 822.509 229.309L806.262 243.894C806.599 246.096 806.63 248.539 806.309 251.088L822.787 252.011ZM784.998 251.794C784.608 254.825 784.713 257.708 785.24 260.219L768.994 274.803C767.357 267.775 767.035 259.531 768.286 250.858L784.998 251.794ZM769.525 276.875L785.792 262.271C786.721 265.051 788.245 267.181 790.231 268.25L781.674 294.432C776.032 291.425 771.828 285.103 769.525 276.875ZM822.041 227.181L805.816 241.747C805.18 239.361 804.138 237.372 802.764 236.003L811.504 209.262C816.468 212.847 820.109 219.21 822.041 227.181Z" fill="#4C4C4C"/>
</g>
<path fill-rule="evenodd" clip-rule="evenodd" d="M811.123 180.754L771.875 171.657L771.873 171.666C771.626 171.605 771.377 171.546 771.128 171.492C747.816 166.392 721.948 194.443 713.35 234.146C704.752 273.848 716.679 310.167 739.991 315.267C740.214 315.315 740.438 315.361 740.662 315.404L778.787 324.262L789.139 278.317C792.793 270.572 795.755 261.912 797.769 252.613C799.627 244.035 800.526 235.614 800.56 227.633L811.123 180.754Z" fill="black"/>
<ellipse cx="43.7197" cy="74.2589" rx="43.7197" ry="74.2589" transform="matrix(0.976187 0.213537 -0.211819 0.978055 767.537 169.617)" fill="#2C2C2C"/>
<g filter="url(#filter7_i_419_1940)">
<g filter="url(#filter8_i_419_1940)">
<ellipse cx="30.4251" cy="53.1875" rx="30.4251" ry="53.1875" transform="matrix(0.962889 0.267119 -0.280029 0.960737 782.792 197.224)" fill="url(#paint3_linear_419_1940)"/>
</g>
<g filter="url(#filter9_di_419_1940)">
<path fill-rule="evenodd" clip-rule="evenodd" d="M819.181 264.309C813.943 282.296 802.315 295.082 791.511 295.028L796.551 275.194C800.941 274.123 805.343 269.091 807.807 262.162L819.181 264.309ZM820.587 258.592C824.218 240.602 820.029 224.391 810.733 219.382L805.691 239.225C809.084 242.314 810.557 249.007 809.292 256.46L820.587 258.592ZM787.641 252.373C790.078 244.151 795.231 238.174 800.22 237.488L805.217 217.823C793.882 217.189 781.463 230.97 776.383 250.249L787.641 252.373ZM786.461 258.133L775.125 255.993C772.037 273.661 776.51 289.288 785.922 293.758L790.917 274.1C787.386 271.493 785.646 265.285 786.461 258.133Z" fill="#A9A8A8"/>
</g>
</g>
<g filter="url(#filter10_ii_419_1940)">
<path fill-rule="evenodd" clip-rule="evenodd" d="M228.348 172.493C227.94 172.85 227.507 173.176 227.045 173.459C225.43 174.444 223.976 175.143 222.678 175.526C206.36 180.342 70.6521 259.325 41.4165 290.423C12.9663 320.686 15.0335 338.291 15.9931 346.463C16.1317 347.644 16.2472 348.627 16.2444 349.424C16.23 353.396 16.4625 361.384 16.7583 371.546C16.9324 377.531 17.1286 384.271 17.3092 391.389L17.9229 415.572C18.0254 417.377 18.0641 419.22 18.1037 421.103C18.2717 429.096 18.4545 437.786 23.5948 447.182C29.9313 458.765 60.1783 501.057 202.793 541.921C251.152 555.778 306.46 537.615 341.621 521.984C356.321 516.077 367.422 510.45 372.896 507.551C373.738 507.105 374.38 506.423 374.786 505.608C374.895 505.387 375.081 505.183 375.297 505.065V505.065C375.622 504.887 375.809 504.57 375.828 504.2C376.469 492.11 378.9 475.067 382.659 457.985C386.971 439.558 392.814 421.257 399.431 409.251C414.975 381.05 448.691 345.9 476.125 354.599C507.26 364.473 506.016 408.922 505.692 419.536C505.596 422.658 505.288 424.746 504.983 426.808C504.637 429.153 504.295 431.464 504.277 435.224C504.276 435.407 504.287 435.586 504.307 435.761C504.326 435.93 504.344 436.1 504.345 436.27C504.349 436.896 504.366 437.584 504.399 438.347C504.449 439.513 505.71 440.2 506.733 439.638V439.638C507.111 439.431 507.555 439.398 507.981 439.461C508.906 439.597 509.897 439.448 510.819 438.946L746.633 310.649C747.884 309.969 748.76 308.747 748.913 307.331C749.483 302.069 749.312 295.967 749.122 289.162L749.122 289.16C748.598 270.365 747.924 246.21 762.255 219.583C775.355 195.246 794.923 178.86 813.198 184.09C831.472 189.32 836.899 208.723 838.163 219.574C839.405 230.23 839.076 240.046 838.886 245.739L838.886 245.74L838.886 245.741C838.81 248.032 838.755 249.655 838.835 250.396C839.111 252.979 864.646 229.853 866.107 221.251C870.553 195.071 870.998 170.651 867.647 144.277C867.099 139.963 865.229 129.079 863.903 124.812C863.701 124.164 863.588 123.495 863.611 122.816C863.928 113.728 862.005 100.436 859.38 94.8505C859.145 94.3508 858.915 93.8242 858.673 93.2711C855.854 86.8162 851.45 76.7352 819.142 63.2586C773.267 44.1225 648.604 2.09481 643.799 1.16048C632.444 -1.04716 618.008 0.391379 606.321 1.55595C599.464 2.23928 593.553 2.82828 589.767 2.53105C535.08 -1.76187 472.044 7.37256 389.685 51.5715C378.632 56.5958 367.723 62.2859 357.182 68.7333C330.853 84.8381 308.759 101.789 290.423 117.336C269.019 134.571 252.567 149.994 240.756 161.067L240.756 161.067C235.816 165.699 231.688 169.569 228.348 172.493Z" fill="url(#paint4_linear_419_1940)"/>
</g>
<g filter="url(#filter11_ddi_419_1940)">
<path d="M449.152 261.602C479.17 248.274 495.173 206.611 539.977 157.15C541.072 155.942 540.62 153.99 539.092 153.421L349.201 82.6914C348.854 82.5624 348.491 82.5191 348.132 82.6089C344.804 83.4422 325.497 90.0415 273.032 138.593C246.659 162.999 241.415 169.315 227.717 179.062C225.551 180.604 226.017 183.865 234.284 190.334C260.638 210.956 404.764 281.311 449.152 261.602Z" fill="url(#paint5_linear_419_1940)"/>
</g>
<g filter="url(#filter12_di_419_1940)">
<path d="M659.051 96.3889C698.608 82.8264 708.868 82.4948 736.357 80.2442C755.272 78.6956 785.418 80.7338 788.915 89.1793C792.413 97.6249 756.682 125.335 741.822 134.058C734.559 138.321 483.676 272.125 491.375 256.868C500.859 238.072 545.336 183.936 560.436 161.908C585.611 125.182 619.494 109.951 659.051 96.3889Z" fill="url(#paint6_linear_419_1940)"/>
</g>
<g filter="url(#filter13_di_419_1940)">
<path d="M748.794 68.9863L579.771 5.08984C579.771 5.08984 583.555 6.31665 604.075 5.49348C611.236 5.20622 786.672 72.1775 787.969 73.2606L748.794 68.9863Z" fill="url(#paint7_linear_419_1940)"/>
</g>
<g filter="url(#filter14_f_419_1940)">
<path d="M374.619 355.434C438.109 323.936 473.259 285.527 511.095 250.274C396.7 287.378 157.345 368.292 161.249 373.064C166.128 379.028 183.639 385.806 241.312 388.227C298.093 390.611 367.35 359.04 374.619 355.434Z" fill="url(#paint8_linear_419_1940)" fill-opacity="0.21"/>
</g>
<g filter="url(#filter15_f_419_1940)">
<path d="M122.905 219.165C126.48 216.071 171.144 167.365 204.89 142.826C177.907 198.951 116.237 321.02 110.202 320.57C102.659 320.008 68.0673 314.434 57.3318 291.266C46.7624 268.456 118.437 223.034 122.905 219.165Z" fill="url(#paint9_linear_419_1940)" fill-opacity="0.13"/>
</g>
<g filter="url(#filter16_di_419_1940)">
<path d="M600.949 260.124C600.927 259.243 601.409 258.426 602.19 258.021L623.831 246.808C625.335 246.029 627.131 247.092 627.174 248.787L627.264 252.327C627.286 253.209 626.803 254.027 626.019 254.431L604.377 265.602C602.874 266.378 601.081 265.314 601.038 263.621L600.949 260.124Z" fill="#323232"/>
</g>
<g filter="url(#filter17_di_419_1940)">
<path d="M722.493 202.743C722.471 201.862 722.953 201.046 723.734 200.641L745.375 189.427C746.878 188.648 748.675 189.712 748.718 191.406L748.808 194.946C748.83 195.829 748.346 196.646 747.563 197.051L725.921 208.221C724.418 208.997 722.625 207.933 722.582 206.24L722.493 202.743Z" fill="#323232"/>
</g>
<g filter="url(#filter18_f_419_1940)">
<path d="M529.259 415.864L734.88 308.645C736.012 308.055 736.846 307.025 737.181 305.793C742.304 286.989 751.603 251.036 751.625 243.498C751.653 233.744 506.547 358.077 515.791 379.911C520.565 391.186 521.643 402.258 521.361 410.388C521.223 414.372 525.725 417.707 529.259 415.864Z" fill="url(#paint10_linear_419_1940)" fill-opacity="0.12"/>
</g>
<path d="M323.316 236.682L467.044 126.275C483.93 130.391 522.529 146.51 529.871 149.058C539.383 152.359 540.999 154.292 540.999 154.292C541.072 157.137 539.651 158.418 535.19 162.98C528.794 169.52 526.092 172.524 510.374 193.68C487.737 224.147 470.641 252.394 453.742 259.497C440.298 265.148 419.237 270.326 388.846 261.144C361.681 252.936 344.843 243.311 323.316 236.682Z" fill="#C4C4C4" fill-opacity="0.2"/>
<g opacity="0.17" filter="url(#filter19_f_419_1940)">
<path d="M65.7871 327.802C106.487 358.362 196.391 401.244 236.197 407.121" stroke="url(#paint11_linear_419_1940)" stroke-width="75.7446" stroke-linecap="round" stroke-linejoin="round"/>
</g>
<g filter="url(#filter20_ddii_419_1940)">
<path d="M35.6154 340.093C27.6564 329.895 29.5783 321.527 30.3816 308.445C30.4035 308.089 30.4784 307.708 30.5794 307.366C33.6448 296.978 19.6342 318.746 18.488 333.594C18.1097 338.509 18.4874 340.984 19.0621 345.497C19.325 347.562 23.9037 360.092 23.3409 362.837C22.7781 365.581 24.644 384.351 24.6204 387.196C24.5968 390.04 36.9994 410.887 68.6904 430.492C95.0162 446.778 132.48 456.955 136.306 457.407C140.131 457.859 143.542 444.975 146.292 444.198C153.486 442.165 175.076 449.482 183.112 451.287C192.49 453.393 214.368 458.244 238.052 454.588C267.347 450.067 271.759 446.611 298.404 431.21C315.29 421.45 327.216 403.411 332.088 392.508C333.406 389.558 330.72 387.032 327.68 388.125C309.089 394.807 270.782 409.638 227.245 415.221C162.552 423.518 110.539 393.989 103.087 389.744C71.7625 371.898 55.3826 365.421 35.6154 340.093Z" fill="#272727"/>
</g>
<mask id="mask0_419_1940" style="mask-type:alpha" maskUnits="userSpaceOnUse" x="15" y="308" width="318" height="150">
<path d="M35.6145 339.962C29.3108 331.874 28.7195 322.287 30.0129 313.82C30.7173 309.21 26.1605 306.788 23.8821 310.858C18.2379 320.939 15.9435 329.445 15.3478 334.12C14.9664 339.035 15.1645 342.145 15.7363 346.659C15.9978 348.724 23.89 359.954 23.3254 362.698C22.7609 365.442 24.6148 384.213 24.5894 387.058C24.564 389.902 36.9533 410.757 68.6317 430.382C94.9471 446.685 132.405 456.887 136.23 457.341C140.055 457.795 143.474 444.913 146.224 444.138C153.42 442.11 175.005 449.44 183.04 451.251C192.416 453.363 214.292 458.228 237.978 454.587C267.275 450.084 271.69 446.632 298.345 431.248C315.237 421.498 327.174 403.467 332.053 392.567C333.373 389.618 330.689 387.09 327.648 388.181C309.053 394.851 270.736 409.658 227.195 415.213C162.498 423.469 110.504 393.906 103.055 389.656C71.7413 371.79 55.3654 365.302 35.6145 339.962Z" fill="#999999"/>
</mask>
<g mask="url(#mask0_419_1940)">
<g filter="url(#filter21_d_419_1940)">
<path d="M286.099 397.815L198.856 401.345C198.851 401.362 198.845 401.38 198.839 401.398C198.615 402.104 198.333 403.129 198.111 404.374C197.664 406.876 197.472 410.194 198.41 413.597C199.338 416.965 201.39 420.486 205.56 423.447C209.759 426.428 216.194 428.901 225.969 429.961C231.776 430.591 239.78 430.36 247.965 428.59C256.155 426.819 264.403 423.536 270.808 418.157C274.271 415.249 278.468 409.573 281.874 404.462C283.557 401.937 285.014 399.601 286.05 397.896C286.066 397.869 286.083 397.842 286.099 397.815Z" stroke="white" stroke-opacity="0.9" stroke-width="3.41524"/>
</g>
<g filter="url(#filter22_d_419_1940)">
<path d="M30.3364 312.897C30.3282 312.913 30.32 312.928 30.3117 312.944C29.5435 314.382 28.5908 316.454 27.8608 318.969C26.4017 323.997 25.8483 330.724 29.3421 337.773C30.3368 339.78 31.7112 341.097 33.0913 341.615C34.3732 342.096 35.8981 341.983 37.5928 340.631C38.7607 339.7 40.3955 339.3 41.8915 339.112C43.4494 338.916 45.1567 338.917 46.7053 338.996C47.3693 339.029 48.0132 339.078 48.6154 339.133L30.3364 312.897Z" stroke="white" stroke-opacity="0.9" stroke-width="3.41524"/>
</g>
</g>
</g>
<defs>
<filter id="filter0_f_419_1940" x="-2.07324" y="168.577" width="912.77" height="427.965" filterUnits="userSpaceOnUse" color-interpolation-filters="sRGB">
<feFlood flood-opacity="0" result="BackgroundImageFix"/>
<feBlend mode="normal" in="SourceGraphic" in2="BackgroundImageFix" result="shape"/>
<feGaussianBlur stdDeviation="5" result="effect1_foregroundBlur_419_1940"/>
</filter>
<filter id="filter1_i_419_1940" x="404.416" y="373.751" width="88.7217" height="126.951" filterUnits="userSpaceOnUse" color-interpolation-filters="sRGB">
<feFlood flood-opacity="0" result="BackgroundImageFix"/>
<feBlend mode="normal" in="SourceGraphic" in2="BackgroundImageFix" result="shape"/>
<feColorMatrix in="SourceAlpha" type="matrix" values="0 0 0 0 0 0 0 0 0 0 0 0 0 0 0 0 0 0 127 0" result="hardAlpha"/>
<feMorphology radius="1.14765" operator="erode" in="SourceAlpha" result="effect1_innerShadow_419_1940"/>
<feOffset/>
<feGaussianBlur stdDeviation="0.573823"/>
<feComposite in2="hardAlpha" operator="arithmetic" k2="-1" k3="1"/>
<feColorMatrix type="matrix" values="0 0 0 0 0 0 0 0 0 0 0 0 0 0 0 0 0 0 0.25 0"/>
<feBlend mode="normal" in2="shape" result="effect1_innerShadow_419_1940"/>
</filter>
<filter id="filter2_di_419_1940" x="408.458" y="384.249" width="77.862" height="108.027" filterUnits="userSpaceOnUse" color-interpolation-filters="sRGB">
<feFlood flood-opacity="0" result="BackgroundImageFix"/>
<feColorMatrix in="SourceAlpha" type="matrix" values="0 0 0 0 0 0 0 0 0 0 0 0 0 0 0 0 0 0 127 0" result="hardAlpha"/>
<feOffset dy="0.459058"/>
<feGaussianBlur stdDeviation="0.344294"/>
<feColorMatrix type="matrix" values="0 0 0 0 1 0 0 0 0 1 0 0 0 0 1 0 0 0 0.41 0"/>
<feBlend mode="normal" in2="BackgroundImageFix" result="effect1_dropShadow_419_1940"/>
<feBlend mode="normal" in="SourceGraphic" in2="effect1_dropShadow_419_1940" result="shape"/>
<feColorMatrix in="SourceAlpha" type="matrix" values="0 0 0 0 0 0 0 0 0 0 0 0 0 0 0 0 0 0 127 0" result="hardAlpha"/>
<feOffset dx="-3.44294" dy="2.29529"/>
<feGaussianBlur stdDeviation="1.72147"/>
<feComposite in2="hardAlpha" operator="arithmetic" k2="-1" k3="1"/>
<feColorMatrix type="matrix" values="0 0 0 0 0 0 0 0 0 0 0 0 0 0 0 0 0 0 0.25 0"/>
<feBlend mode="normal" in2="shape" result="effect2_innerShadow_419_1940"/>
</filter>
<filter id="filter3_i_419_1940" x="406.933" y="375.725" width="82.7461" height="123.021" filterUnits="userSpaceOnUse" color-interpolation-filters="sRGB">
<feFlood flood-opacity="0" result="BackgroundImageFix"/>
<feBlend mode="normal" in="SourceGraphic" in2="BackgroundImageFix" result="shape"/>
<feColorMatrix in="SourceAlpha" type="matrix" values="0 0 0 0 0 0 0 0 0 0 0 0 0 0 0 0 0 0 127 0" result="hardAlpha"/>
<feMorphology radius="2.84604" operator="erode" in="SourceAlpha" result="effect1_innerShadow_419_1940"/>
<feOffset/>
<feGaussianBlur stdDeviation="1.42302"/>
<feComposite in2="hardAlpha" operator="arithmetic" k2="-1" k3="1"/>
<feColorMatrix type="matrix" values="0 0 0 0 0 0 0 0 0 0 0 0 0 0 0 0 0 0 0.25 0"/>
<feBlend mode="normal" in2="shape" result="effect1_innerShadow_419_1940"/>
</filter>
<filter id="filter4_di_419_1940" x="414.055" y="391.418" width="66.107" height="93.7385" filterUnits="userSpaceOnUse" color-interpolation-filters="sRGB">
<feFlood flood-opacity="0" result="BackgroundImageFix"/>
<feColorMatrix in="SourceAlpha" type="matrix" values="0 0 0 0 0 0 0 0 0 0 0 0 0 0 0 0 0 0 127 0" result="hardAlpha"/>
<feOffset dy="0.970617"/>
<feGaussianBlur stdDeviation="0.606636"/>
<feColorMatrix type="matrix" values="0 0 0 0 1 0 0 0 0 1 0 0 0 0 1 0 0 0 0.59 0"/>
<feBlend mode="normal" in2="BackgroundImageFix" result="effect1_dropShadow_419_1940"/>
<feBlend mode="normal" in="SourceGraphic" in2="effect1_dropShadow_419_1940" result="shape"/>
<feColorMatrix in="SourceAlpha" type="matrix" values="0 0 0 0 0 0 0 0 0 0 0 0 0 0 0 0 0 0 127 0" result="hardAlpha"/>
<feOffset dx="-3.63981" dy="2.42654"/>
<feGaussianBlur stdDeviation="1.81991"/>
<feComposite in2="hardAlpha" operator="arithmetic" k2="-1" k3="1"/>
<feColorMatrix type="matrix" values="0 0 0 0 0 0 0 0 0 0 0 0 0 0 0 0 0 0 0.25 0"/>
<feBlend mode="normal" in2="shape" result="effect2_innerShadow_419_1940"/>
</filter>
<filter id="filter5_i_419_1940" x="761.811" y="196.888" width="67.499" height="108.651" filterUnits="userSpaceOnUse" color-interpolation-filters="sRGB">
<feFlood flood-opacity="0" result="BackgroundImageFix"/>
<feBlend mode="normal" in="SourceGraphic" in2="BackgroundImageFix" result="shape"/>
<feColorMatrix in="SourceAlpha" type="matrix" values="0 0 0 0 0 0 0 0 0 0 0 0 0 0 0 0 0 0 127 0" result="hardAlpha"/>
<feMorphology radius="0.947741" operator="erode" in="SourceAlpha" result="effect1_innerShadow_419_1940"/>
<feOffset/>
<feGaussianBlur stdDeviation="0.47387"/>
<feComposite in2="hardAlpha" operator="arithmetic" k2="-1" k3="1"/>
<feColorMatrix type="matrix" values="0 0 0 0 0 0 0 0 0 0 0 0 0 0 0 0 0 0 0.25 0"/>
<feBlend mode="normal" in2="shape" result="effect1_innerShadow_419_1940"/>
</filter>
<filter id="filter6_di_419_1940" x="764.679" y="205.874" width="59.5056" height="92.377" filterUnits="userSpaceOnUse" color-interpolation-filters="sRGB">
<feFlood flood-opacity="0" result="BackgroundImageFix"/>
<feColorMatrix in="SourceAlpha" type="matrix" values="0 0 0 0 0 0 0 0 0 0 0 0 0 0 0 0 0 0 127 0" result="hardAlpha"/>
<feOffset dy="0.379096"/>
<feGaussianBlur stdDeviation="0.284322"/>
<feColorMatrix type="matrix" values="0 0 0 0 1 0 0 0 0 1 0 0 0 0 1 0 0 0 0.41 0"/>
<feBlend mode="normal" in2="BackgroundImageFix" result="effect1_dropShadow_419_1940"/>
<feBlend mode="normal" in="SourceGraphic" in2="effect1_dropShadow_419_1940" result="shape"/>
<feColorMatrix in="SourceAlpha" type="matrix" values="0 0 0 0 0 0 0 0 0 0 0 0 0 0 0 0 0 0 127 0" result="hardAlpha"/>
<feOffset dx="-2.84322" dy="1.89548"/>
<feGaussianBlur stdDeviation="1.42161"/>
<feComposite in2="hardAlpha" operator="arithmetic" k2="-1" k3="1"/>
<feColorMatrix type="matrix" values="0 0 0 0 0 0 0 0 0 0 0 0 0 0 0 0 0 0 0.25 0"/>
<feBlend mode="normal" in2="shape" result="effect2_innerShadow_419_1940"/>
</filter>
<filter id="filter7_i_419_1940" x="764.322" y="204.701" width="65.7432" height="103.498" filterUnits="userSpaceOnUse" color-interpolation-filters="sRGB">
<feFlood flood-opacity="0" result="BackgroundImageFix"/>
<feBlend mode="normal" in="SourceGraphic" in2="BackgroundImageFix" result="shape"/>
<feColorMatrix in="SourceAlpha" type="matrix" values="0 0 0 0 0 0 0 0 0 0 0 0 0 0 0 0 0 0 127 0" result="hardAlpha"/>
<feMorphology radius="2.84604" operator="erode" in="SourceAlpha" result="effect1_innerShadow_419_1940"/>
<feOffset/>
<feGaussianBlur stdDeviation="1.42302"/>
<feComposite in2="hardAlpha" operator="arithmetic" k2="-1" k3="1"/>
<feColorMatrix type="matrix" values="0 0 0 0 0 0 0 0 0 0 0 0 0 0 0 0 0 0 0.25 0"/>
<feBlend mode="normal" in2="shape" result="effect1_innerShadow_419_1940"/>
</filter>
<filter id="filter8_i_419_1940" x="764.322" y="204.701" width="65.7432" height="103.498" filterUnits="userSpaceOnUse" color-interpolation-filters="sRGB">
<feFlood flood-opacity="0" result="BackgroundImageFix"/>
<feBlend mode="normal" in="SourceGraphic" in2="BackgroundImageFix" result="shape"/>
<feColorMatrix in="SourceAlpha" type="matrix" values="0 0 0 0 0 0 0 0 0 0 0 0 0 0 0 0 0 0 127 0" result="hardAlpha"/>
<feMorphology radius="0.852955" operator="erode" in="SourceAlpha" result="effect1_innerShadow_419_1940"/>
<feOffset/>
<feGaussianBlur stdDeviation="0.426477"/>
<feComposite in2="hardAlpha" operator="arithmetic" k2="-1" k3="1"/>
<feColorMatrix type="matrix" values="0 0 0 0 0 0 0 0 0 0 0 0 0 0 0 0 0 0 0.25 0"/>
<feBlend mode="normal" in2="shape" result="effect1_innerShadow_419_1940"/>
</filter>
<filter id="filter9_di_419_1940" x="770.515" y="217.559" width="52.5855" height="79.8948" filterUnits="userSpaceOnUse" color-interpolation-filters="sRGB">
<feFlood flood-opacity="0" result="BackgroundImageFix"/>
<feColorMatrix in="SourceAlpha" type="matrix" values="0 0 0 0 0 0 0 0 0 0 0 0 0 0 0 0 0 0 127 0" result="hardAlpha"/>
<feOffset dy="0.970618"/>
<feGaussianBlur stdDeviation="0.606636"/>
<feColorMatrix type="matrix" values="0 0 0 0 1 0 0 0 0 1 0 0 0 0 1 0 0 0 0.59 0"/>
<feBlend mode="normal" in2="BackgroundImageFix" result="effect1_dropShadow_419_1940"/>
<feBlend mode="normal" in="SourceGraphic" in2="effect1_dropShadow_419_1940" result="shape"/>
<feColorMatrix in="SourceAlpha" type="matrix" values="0 0 0 0 0 0 0 0 0 0 0 0 0 0 0 0 0 0 127 0" result="hardAlpha"/>
<feOffset dx="-3.63982" dy="2.42654"/>
<feGaussianBlur stdDeviation="1.81991"/>
<feComposite in2="hardAlpha" operator="arithmetic" k2="-1" k3="1"/>
<feColorMatrix type="matrix" values="0 0 0 0 0 0 0 0 0 0 0 0 0 0 0 0 0 0 0.25 0"/>
<feBlend mode="normal" in2="shape" result="effect2_innerShadow_419_1940"/>
</filter>
<filter id="filter10_ii_419_1940" x="15.5352" y="-22.76" width="871.39" height="569.61" filterUnits="userSpaceOnUse" color-interpolation-filters="sRGB">
<feFlood flood-opacity="0" result="BackgroundImageFix"/>
<feBlend mode="normal" in="SourceGraphic" in2="BackgroundImageFix" result="shape"/>
<feColorMatrix in="SourceAlpha" type="matrix" values="0 0 0 0 0 0 0 0 0 0 0 0 0 0 0 0 0 0 127 0" result="hardAlpha"/>
<feOffset dx="17.0762" dy="-22.7683"/>
<feGaussianBlur stdDeviation="68.3049"/>
<feComposite in2="hardAlpha" operator="arithmetic" k2="-1" k3="1"/>
<feColorMatrix type="matrix" values="0 0 0 0 0 0 0 0 0 0 0 0 0 0 0 0 0 0 0.07 0"/>
<feBlend mode="normal" in2="shape" result="effect1_innerShadow_419_1940"/>
<feColorMatrix in="SourceAlpha" type="matrix" values="0 0 0 0 0 0 0 0 0 0 0 0 0 0 0 0 0 0 127 0" result="hardAlpha"/>
<feOffset dy="-2.84604"/>
<feGaussianBlur stdDeviation="5.69207"/>
<feComposite in2="hardAlpha" operator="arithmetic" k2="-1" k3="1"/>
<feColorMatrix type="matrix" values="0 0 0 0 0 0 0 0 0 0 0 0 0 0 0 0 0 0 0.09 0"/>
<feBlend mode="normal" in2="effect1_innerShadow_419_1940" result="effect2_innerShadow_419_1940"/>
</filter>
<filter id="filter11_ddi_419_1940" x="222.025" y="79.1186" width="320.852" height="189.372" filterUnits="userSpaceOnUse" color-interpolation-filters="sRGB">
<feFlood flood-opacity="0" result="BackgroundImageFix"/>
<feColorMatrix in="SourceAlpha" type="matrix" values="0 0 0 0 0 0 0 0 0 0 0 0 0 0 0 0 0 0 127 0" result="hardAlpha"/>
<feOffset dx="-2.29529" dy="1.14765"/>
<feGaussianBlur stdDeviation="1.14765"/>
<feColorMatrix type="matrix" values="0 0 0 0 1 0 0 0 0 1 0 0 0 0 1 0 0 0 0.28 0"/>
<feBlend mode="normal" in2="BackgroundImageFix" result="effect1_dropShadow_419_1940"/>
<feColorMatrix in="SourceAlpha" type="matrix" values="0 0 0 0 0 0 0 0 0 0 0 0 0 0 0 0 0 0 127 0" result="hardAlpha"/>
<feOffset dy="-1.14765"/>
<feGaussianBlur stdDeviation="1.14765"/>
<feColorMatrix type="matrix" values="0 0 0 0 1 0 0 0 0 1 0 0 0 0 1 0 0 0 0.56 0"/>
<feBlend mode="normal" in2="effect1_dropShadow_419_1940" result="effect2_dropShadow_419_1940"/>
<feBlend mode="normal" in="SourceGraphic" in2="effect2_dropShadow_419_1940" result="shape"/>
<feColorMatrix in="SourceAlpha" type="matrix" values="0 0 0 0 0 0 0 0 0 0 0 0 0 0 0 0 0 0 127 0" result="hardAlpha"/>
<feOffset dx="-1.14765" dy="3.44294"/>
<feGaussianBlur stdDeviation="1.72147"/>
<feComposite in2="hardAlpha" operator="arithmetic" k2="-1" k3="1"/>
<feColorMatrix type="matrix" values="0 0 0 0 0 0 0 0 0 0 0 0 0 0 0 0 0 0 0.75 0"/>
<feBlend mode="normal" in2="shape" result="effect3_innerShadow_419_1940"/>
</filter>
<filter id="filter12_di_419_1940" x="486.611" y="79.7676" width="303.731" height="182.903" filterUnits="userSpaceOnUse" color-interpolation-filters="sRGB">
<feFlood flood-opacity="0" result="BackgroundImageFix"/>
<feColorMatrix in="SourceAlpha" type="matrix" values="0 0 0 0 0 0 0 0 0 0 0 0 0 0 0 0 0 0 127 0" result="hardAlpha"/>
<feOffset dy="1.18682"/>
<feGaussianBlur stdDeviation="0.593408"/>
<feColorMatrix type="matrix" values="0 0 0 0 0.925374 0 0 0 0 0.925374 0 0 0 0 0.925374 0 0 0 0.37 0"/>
<feBlend mode="normal" in2="BackgroundImageFix" result="effect1_dropShadow_419_1940"/>
<feBlend mode="normal" in="SourceGraphic" in2="effect1_dropShadow_419_1940" result="shape"/>
<feColorMatrix in="SourceAlpha" type="matrix" values="0 0 0 0 0 0 0 0 0 0 0 0 0 0 0 0 0 0 127 0" result="hardAlpha"/>
<feOffset dx="-4.59058" dy="5.73823"/>
<feGaussianBlur stdDeviation="2.29529"/>
<feComposite in2="hardAlpha" operator="arithmetic" k2="-1" k3="1"/>
<feColorMatrix type="matrix" values="0 0 0 0 0 0 0 0 0 0 0 0 0 0 0 0 0 0 0.8 0"/>
<feBlend mode="normal" in2="shape" result="effect2_innerShadow_419_1940"/>
</filter>
<filter id="filter13_di_419_1940" x="575.181" y="5.08984" width="213.975" height="72.7615" filterUnits="userSpaceOnUse" color-interpolation-filters="sRGB">
<feFlood flood-opacity="0" result="BackgroundImageFix"/>
<feColorMatrix in="SourceAlpha" type="matrix" values="0 0 0 0 0 0 0 0 0 0 0 0 0 0 0 0 0 0 127 0" result="hardAlpha"/>
<feOffset dy="1.18682"/>
<feGaussianBlur stdDeviation="0.593408"/>
<feColorMatrix type="matrix" values="0 0 0 0 0.925374 0 0 0 0 0.925374 0 0 0 0 0.925374 0 0 0 0.37 0"/>
<feBlend mode="normal" in2="BackgroundImageFix" result="effect1_dropShadow_419_1940"/>
<feBlend mode="normal" in="SourceGraphic" in2="effect1_dropShadow_419_1940" result="shape"/>
<feColorMatrix in="SourceAlpha" type="matrix" values="0 0 0 0 0 0 0 0 0 0 0 0 0 0 0 0 0 0 127 0" result="hardAlpha"/>
<feOffset dx="-4.59058" dy="5.73823"/>
<feGaussianBlur stdDeviation="2.29529"/>
<feComposite in2="hardAlpha" operator="arithmetic" k2="-1" k3="1"/>
<feColorMatrix type="matrix" values="0 0 0 0 0 0 0 0 0 0 0 0 0 0 0 0 0 0 0.8 0"/>
<feBlend mode="normal" in2="shape" result="effect2_innerShadow_419_1940"/>
</filter>
<filter id="filter14_f_419_1940" x="129.068" y="218.14" width="414.161" height="202.349" filterUnits="userSpaceOnUse" color-interpolation-filters="sRGB">
<feFlood flood-opacity="0" result="BackgroundImageFix"/>
<feBlend mode="normal" in="SourceGraphic" in2="BackgroundImageFix" result="shape"/>
<feGaussianBlur stdDeviation="16.067" result="effect1_foregroundBlur_419_1940"/>
</filter>
<filter id="filter15_f_419_1940" x="35.6119" y="122.169" width="189.935" height="219.06" filterUnits="userSpaceOnUse" color-interpolation-filters="sRGB">
<feFlood flood-opacity="0" result="BackgroundImageFix"/>
<feBlend mode="normal" in="SourceGraphic" in2="BackgroundImageFix" result="shape"/>
<feGaussianBlur stdDeviation="10.3288" result="effect1_foregroundBlur_419_1940"/>
</filter>
<filter id="filter16_di_419_1940" x="600.379" y="245.409" width="27.4548" height="23.297" filterUnits="userSpaceOnUse" color-interpolation-filters="sRGB">
<feFlood flood-opacity="0" result="BackgroundImageFix"/>
<feColorMatrix in="SourceAlpha" type="matrix" values="0 0 0 0 0 0 0 0 0 0 0 0 0 0 0 0 0 0 127 0" result="hardAlpha"/>
<feOffset dy="-0.569207"/>
<feGaussianBlur stdDeviation="0.284604"/>
<feColorMatrix type="matrix" values="0 0 0 0 0.78755 0 0 0 0 0.78755 0 0 0 0 0.78755 0 0 0 0.19 0"/>
<feBlend mode="normal" in2="BackgroundImageFix" result="effect1_dropShadow_419_1940"/>
<feBlend mode="normal" in="SourceGraphic" in2="effect1_dropShadow_419_1940" result="shape"/>
<feColorMatrix in="SourceAlpha" type="matrix" values="0 0 0 0 0 0 0 0 0 0 0 0 0 0 0 0 0 0 127 0" result="hardAlpha"/>
<feOffset dy="2.84604"/>
<feGaussianBlur stdDeviation="1.42302"/>
<feComposite in2="hardAlpha" operator="arithmetic" k2="-1" k3="1"/>
<feColorMatrix type="matrix" values="0 0 0 0 0 0 0 0 0 0 0 0 0 0 0 0 0 0 0.74 0"/>
<feBlend mode="normal" in2="shape" result="effect2_innerShadow_419_1940"/>
</filter>
<filter id="filter17_di_419_1940" x="721.923" y="188.029" width="27.4548" height="23.297" filterUnits="userSpaceOnUse" color-interpolation-filters="sRGB">
<feFlood flood-opacity="0" result="BackgroundImageFix"/>
<feColorMatrix in="SourceAlpha" type="matrix" values="0 0 0 0 0 0 0 0 0 0 0 0 0 0 0 0 0 0 127 0" result="hardAlpha"/>
<feOffset dy="-0.569207"/>
<feGaussianBlur stdDeviation="0.284604"/>
<feColorMatrix type="matrix" values="0 0 0 0 0.78755 0 0 0 0 0.78755 0 0 0 0 0.78755 0 0 0 0.19 0"/>
<feBlend mode="normal" in2="BackgroundImageFix" result="effect1_dropShadow_419_1940"/>
<feBlend mode="normal" in="SourceGraphic" in2="effect1_dropShadow_419_1940" result="shape"/>
<feColorMatrix in="SourceAlpha" type="matrix" values="0 0 0 0 0 0 0 0 0 0 0 0 0 0 0 0 0 0 127 0" result="hardAlpha"/>
<feOffset dy="2.84604"/>
<feGaussianBlur stdDeviation="1.42302"/>
<feComposite in2="hardAlpha" operator="arithmetic" k2="-1" k3="1"/>
<feColorMatrix type="matrix" values="0 0 0 0 0 0 0 0 0 0 0 0 0 0 0 0 0 0 0.74 0"/>
<feBlend mode="normal" in2="shape" result="effect2_innerShadow_419_1940"/>
</filter>
<filter id="filter18_f_419_1940" x="508.65" y="236.068" width="249.861" height="187.202" filterUnits="userSpaceOnUse" color-interpolation-filters="sRGB">
<feFlood flood-opacity="0" result="BackgroundImageFix"/>
<feBlend mode="normal" in="SourceGraphic" in2="BackgroundImageFix" result="shape"/>
<feGaussianBlur stdDeviation="3.44294" result="effect1_foregroundBlur_419_1940"/>
</filter>
<filter id="filter19_f_419_1940" x="16.4356" y="278.45" width="269.115" height="178.024" filterUnits="userSpaceOnUse" color-interpolation-filters="sRGB">
<feFlood flood-opacity="0" result="BackgroundImageFix"/>
<feBlend mode="normal" in="SourceGraphic" in2="BackgroundImageFix" result="shape"/>
<feGaussianBlur stdDeviation="5.73823" result="effect1_foregroundBlur_419_1940"/>
</filter>
<filter id="filter20_ddii_419_1940" x="16.9075" y="302.511" width="316.953" height="164.754" filterUnits="userSpaceOnUse" color-interpolation-filters="sRGB">
<feFlood flood-opacity="0" result="BackgroundImageFix"/>
<feColorMatrix in="SourceAlpha" type="matrix" values="0 0 0 0 0 0 0 0 0 0 0 0 0 0 0 0 0 0 127 0" result="hardAlpha"/>
<feOffset dy="1.07131"/>
<feGaussianBlur stdDeviation="0.714204"/>
<feColorMatrix type="matrix" values="0 0 0 0 0 0 0 0 0 0 0 0 0 0 0 0 0 0 0.57 0"/>
<feBlend mode="normal" in2="BackgroundImageFix" result="effect1_dropShadow_419_1940"/>
<feColorMatrix in="SourceAlpha" type="matrix" values="0 0 0 0 0 0 0 0 0 0 0 0 0 0 0 0 0 0 127 0" result="hardAlpha"/>
<feOffset dy="-0.714204"/>
<feGaussianBlur stdDeviation="0.714204"/>
<feColorMatrix type="matrix" values="0 0 0 0 0 0 0 0 0 0 0 0 0 0 0 0 0 0 1 0"/>
<feBlend mode="normal" in2="effect1_dropShadow_419_1940" result="effect2_dropShadow_419_1940"/>
<feBlend mode="normal" in="SourceGraphic" in2="effect2_dropShadow_419_1940" result="shape"/>
<feColorMatrix in="SourceAlpha" type="matrix" values="0 0 0 0 0 0 0 0 0 0 0 0 0 0 0 0 0 0 127 0" result="hardAlpha"/>
<feOffset dy="9.84614"/>
<feGaussianBlur stdDeviation="10.0343"/>
<feComposite in2="hardAlpha" operator="arithmetic" k2="-1" k3="1"/>
<feColorMatrix type="matrix" values="0 0 0 0 0 0 0 0 0 0 0 0 0 0 0 0 0 0 1 0"/>
<feBlend mode="normal" in2="shape" result="effect3_innerShadow_419_1940"/>
<feColorMatrix in="SourceAlpha" type="matrix" values="0 0 0 0 0 0 0 0 0 0 0 0 0 0 0 0 0 0 127 0" result="hardAlpha"/>
<feOffset dy="-1.07294"/>
<feGaussianBlur stdDeviation="1.07294"/>
<feComposite in2="hardAlpha" operator="arithmetic" k2="-1" k3="1"/>
<feColorMatrix type="matrix" values="0 0 0 0 0 0 0 0 0 0 0 0 0 0 0 0 0 0 1 0"/>
<feBlend mode="normal" in2="effect3_innerShadow_419_1940" result="effect4_innerShadow_419_1940"/>
</filter>
<filter id="filter21_d_419_1940" x="195.757" y="395.981" width="95.9699" height="38.8341" filterUnits="userSpaceOnUse" color-interpolation-filters="sRGB">
<feFlood flood-opacity="0" result="BackgroundImageFix"/>
<feColorMatrix in="SourceAlpha" type="matrix" values="0 0 0 0 0 0 0 0 0 0 0 0 0 0 0 0 0 0 127 0" result="hardAlpha"/>
<feOffset dx="1.13841" dy="1.41412"/>
<feGaussianBlur stdDeviation="0.707062"/>
<feColorMatrix type="matrix" values="0 0 0 0 1 0 0 0 0 1 0 0 0 0 1 0 0 0 0.24 0"/>
<feBlend mode="normal" in2="BackgroundImageFix" result="effect1_dropShadow_419_1940"/>
<feBlend mode="normal" in="SourceGraphic" in2="effect1_dropShadow_419_1940" result="shape"/>
</filter>
<filter id="filter22_d_419_1940" x="24.7448" y="309.765" width="30.0275" height="36.6456" filterUnits="userSpaceOnUse" color-interpolation-filters="sRGB">
<feFlood flood-opacity="0" result="BackgroundImageFix"/>
<feColorMatrix in="SourceAlpha" type="matrix" values="0 0 0 0 0 0 0 0 0 0 0 0 0 0 0 0 0 0 127 0" result="hardAlpha"/>
<feOffset dx="1.13841" dy="1.41412"/>
<feGaussianBlur stdDeviation="0.707062"/>
<feColorMatrix type="matrix" values="0 0 0 0 1 0 0 0 0 1 0 0 0 0 1 0 0 0 0.24 0"/>
<feBlend mode="normal" in2="BackgroundImageFix" result="effect1_dropShadow_419_1940"/>
<feBlend mode="normal" in="SourceGraphic" in2="effect1_dropShadow_419_1940" result="shape"/>
</filter>
<linearGradient id="paint0_linear_419_1940" x1="92.6244" y1="101.765" x2="97.237" y2="33.1598" gradientUnits="userSpaceOnUse">
<stop stop-color="#3F3F3F"/>
<stop offset="1" stop-color="#5C5C5C"/>
</linearGradient>
<linearGradient id="paint1_linear_419_1940" x1="86.8078" y1="98.1401" x2="91.3839" y2="31.9963" gradientUnits="userSpaceOnUse">
<stop stop-color="#AAAAAA"/>
<stop offset="1" stop-color="#C2C2C2"/>
</linearGradient>
<linearGradient id="paint2_linear_419_1940" x1="76.4979" y1="84.0312" x2="80.3061" y2="27.3813" gradientUnits="userSpaceOnUse">
<stop stop-color="#3F3F3F"/>
<stop offset="1" stop-color="#5C5C5C"/>
</linearGradient>
<linearGradient id="paint3_linear_419_1940" x1="71.7661" y1="81.1363" x2="75.5494" y2="26.4526" gradientUnits="userSpaceOnUse">
<stop stop-color="#AAAAAA"/>
<stop offset="1" stop-color="#C2C2C2"/>
</linearGradient>
<linearGradient id="paint4_linear_419_1940" x1="394.736" y1="517.786" x2="-10.6515" y2="48.607" gradientUnits="userSpaceOnUse">
<stop stop-color="#D8D8D8"/>
<stop offset="1" stop-color="white"/>
</linearGradient>
<linearGradient id="paint5_linear_419_1940" x1="342.687" y1="-79.9545" x2="572.105" y2="126.313" gradientUnits="userSpaceOnUse">
<stop stop-color="#E8EAE9"/>
<stop offset="0.498386" stop-color="#707072"/>
<stop offset="1" stop-color="#2F3032"/>
</linearGradient>
<linearGradient id="paint6_linear_419_1940" x1="728.519" y1="620.787" x2="504.547" y2="235.067" gradientUnits="userSpaceOnUse">
<stop stop-color="#E8EAE9"/>
<stop offset="0.498386" stop-color="#707072"/>
<stop offset="1" stop-color="#2F3032"/>
</linearGradient>
<linearGradient id="paint7_linear_419_1940" x1="809.551" y1="214.212" x2="685.769" y2="42.5916" gradientUnits="userSpaceOnUse">
<stop stop-color="#E8EAE9"/>
<stop offset="0.498386" stop-color="#707072"/>
<stop offset="1" stop-color="#2F3032"/>
</linearGradient>
<linearGradient id="paint8_linear_419_1940" x1="349.89" y1="393.427" x2="320.019" y2="312.854" gradientUnits="userSpaceOnUse">
<stop stop-color="#ECEAEA"/>
<stop offset="1" stop-color="white" stop-opacity="0"/>
</linearGradient>
<linearGradient id="paint9_linear_419_1940" x1="30.2716" y1="256.636" x2="136.112" y2="290.583" gradientUnits="userSpaceOnUse">
<stop stop-color="#ECEAEA"/>
<stop offset="1" stop-color="white" stop-opacity="0"/>
</linearGradient>
<linearGradient id="paint10_linear_419_1940" x1="599.719" y1="401.025" x2="566.449" y2="334.676" gradientUnits="userSpaceOnUse">
<stop stop-color="#040404"/>
<stop offset="1" stop-color="#3C3C3C" stop-opacity="0"/>
</linearGradient>
<linearGradient id="paint11_linear_419_1940" x1="149.447" y1="408.434" x2="167.271" y2="371.503" gradientUnits="userSpaceOnUse">
<stop stop-color="#4B4B4B"/>
<stop offset="0.899322" stop-opacity="0"/>
</linearGradient>
<clipPath id="clip0_419_1940">
<rect width="910" height="600" fill="white"/>
</clipPath>
</defs>
</svg>
