<svg width="1155" height="602" viewBox="0 0 1155 602" fill="none" xmlns="http://www.w3.org/2000/svg">
<g clip-path="url(#clip0_521_1140)">
<rect width="1155" height="602" fill="#121212"/>
<rect y="-16" width="315.82" height="1161" rx="14" fill="#121212"/>
<g clip-path="url(#clip1_521_1140)">
<path d="M33.25 37.125C33.25 37.125 30.4882 40.875 29.5 40.875C28.5117 40.875 25.75 37.125 25.75 37.125" stroke="white" stroke-width="0.9375" stroke-linecap="round" stroke-linejoin="round"/>
<path d="M48.2471 35.0762V42.5H47.2114L43.4482 37.0757H43.3867V42.5H42.2588V35.0762H43.3047L47.0679 40.5107H47.1396V35.0762H48.2471ZM52.0308 42.6128C50.4517 42.6128 49.4263 41.4644 49.4263 39.7417C49.4263 38.0088 50.4517 36.8604 52.0308 36.8604C53.5996 36.8604 54.625 38.0088 54.625 39.7417C54.625 41.4644 53.5996 42.6128 52.0308 42.6128ZM52.0308 41.7002C53.0356 41.7002 53.5176 40.8081 53.5176 39.7417C53.5176 38.6753 53.0356 37.7627 52.0308 37.7627C51.0054 37.7627 50.5234 38.6753 50.5234 39.7417C50.5234 40.8081 51.0054 41.7002 52.0308 41.7002ZM55.7017 42.5V36.9321H56.7578V37.814H56.8193C57.0244 37.2192 57.5781 36.8501 58.2344 36.8501C58.3677 36.8501 58.583 36.8604 58.6958 36.8706V37.9165C58.6035 37.896 58.3472 37.855 58.1216 37.855C57.3628 37.855 56.7988 38.3779 56.7988 39.106V42.5H55.7017ZM59.5161 42.5V36.9321H60.5723V37.8447H60.6338C60.8696 37.2192 61.4131 36.8604 62.1514 36.8604C62.8896 36.8604 63.4126 37.2295 63.6484 37.8447H63.71C63.9766 37.2397 64.5713 36.8604 65.3813 36.8604C66.3862 36.8604 67.104 37.4961 67.104 38.7676V42.5H66.0068V38.8701C66.0068 38.1216 65.5352 37.8037 64.9609 37.8037C64.2534 37.8037 63.8535 38.2856 63.8535 38.9521V42.5H62.7666V38.8086C62.7666 38.2036 62.3462 37.8037 61.7515 37.8037C61.1362 37.8037 60.6133 38.3164 60.6133 39.0649V42.5H59.5161ZM68.1704 40.9312C68.1704 39.6597 69.2471 39.3315 70.252 39.2598C70.6211 39.2341 71.4568 39.188 71.7183 39.1777L71.708 38.7368C71.708 38.1113 71.3286 37.7422 70.5801 37.7422C69.9341 37.7422 69.5444 38.0396 69.4316 38.4497H68.3447C68.4473 37.5269 69.3086 36.8604 70.6211 36.8604C71.5029 36.8604 72.8052 37.1885 72.8052 38.7983V42.5H71.7388V41.7412H71.6978C71.4824 42.1616 70.9697 42.623 70.0469 42.623C68.9907 42.623 68.1704 42.0181 68.1704 40.9312ZM69.2368 40.9414C69.2368 41.4746 69.6777 41.7515 70.293 41.7515C71.1851 41.7515 71.7183 41.1567 71.7183 40.4902V39.9775L70.4058 40.0698C69.688 40.1211 69.2368 40.3877 69.2368 40.9414ZM77.2554 38.4497C77.1528 38.0088 76.8042 37.7217 76.1992 37.7217C75.5737 37.7217 75.1226 38.0498 75.1328 38.4702C75.1226 38.7983 75.3892 39.0342 76.0044 39.1777L76.8862 39.3828C77.9116 39.6084 78.4038 40.1006 78.4141 40.8901C78.4038 41.895 77.563 42.6128 76.1377 42.6128C74.8047 42.6128 74.0049 42.0181 73.8716 40.9824H74.9893C75.0815 41.4849 75.4712 41.731 76.1274 41.731C76.835 41.731 77.2861 41.4438 77.2964 40.9722C77.2861 40.6133 77.0195 40.3774 76.4351 40.2441L75.5635 40.0596C74.5586 39.834 74.0356 39.3008 74.0356 38.5317C74.0356 37.5371 74.897 36.8604 76.189 36.8604C77.4297 36.8604 78.1987 37.4961 78.3115 38.4497H77.2554ZM84.1255 42.6128C82.7822 42.6128 81.7979 41.5259 81.7979 39.7314C81.7979 37.9165 82.7925 36.8604 84.1357 36.8604C85.1714 36.8604 85.5508 37.4858 85.7456 37.8345H85.7969V35.0762H86.894V42.5H85.8276V41.6284H85.7456C85.5405 41.9976 85.1406 42.6128 84.1255 42.6128ZM84.3716 41.6797C85.3047 41.6797 85.8276 40.8799 85.8276 39.7109C85.8276 38.5522 85.3149 37.7935 84.3716 37.7935C83.3975 37.7935 82.9155 38.6138 82.9155 39.7109C82.9155 40.8286 83.418 41.6797 84.3716 41.6797ZM90.7188 42.6128C89.0781 42.6128 88.0732 41.4849 88.0732 39.752C88.0732 38.0396 89.0986 36.8604 90.647 36.8604C91.9185 36.8604 93.1182 37.6499 93.1182 39.6597V40.0493H89.1602C89.1909 41.1055 89.8113 41.7104 90.729 41.7104C91.3545 41.7104 91.7544 41.4438 91.939 41.1055H93.0464C92.8003 42.0078 91.939 42.6128 90.7188 42.6128ZM89.1704 39.229H92.0415C92.0415 38.3779 91.498 37.7627 90.6572 37.7627C89.7805 37.7627 89.2114 38.4395 89.1704 39.229ZM101.885 37.4961C101.701 36.5425 100.911 36.0093 99.9678 36.0093C98.686 36.0093 97.7324 36.9937 97.7324 38.7881C97.7324 40.5928 98.6963 41.5669 99.9678 41.5669C100.901 41.5669 101.69 41.0439 101.885 40.1006L103.023 40.1108C102.788 41.5771 101.588 42.6025 99.9575 42.6025C98.0195 42.6025 96.6147 41.1567 96.6147 38.7881C96.6147 36.4092 98.0298 34.9736 99.9575 34.9736C101.526 34.9736 102.767 35.8965 103.023 37.4961H101.885ZM104.151 42.5V36.9321H105.249V42.5H104.151ZM104.705 36.0708C104.326 36.0708 104.008 35.7837 104.008 35.4248C104.008 35.0659 104.326 34.7788 104.705 34.7788C105.074 34.7788 105.392 35.0659 105.392 35.4248C105.392 35.7837 105.074 36.0708 104.705 36.0708ZM106.582 42.5V36.9321H107.638V37.814H107.699C107.904 37.2192 108.458 36.8501 109.114 36.8501C109.248 36.8501 109.463 36.8604 109.576 36.8706V37.9165C109.483 37.896 109.227 37.855 109.001 37.855C108.243 37.855 107.679 38.3779 107.679 39.106V42.5H106.582ZM112.57 42.6128C110.95 42.6128 109.965 41.4131 109.965 39.7417C109.965 38.0396 110.98 36.8604 112.549 36.8604C113.821 36.8604 114.744 37.6089 114.856 38.7368H113.79C113.677 38.2139 113.257 37.7729 112.57 37.7729C111.667 37.7729 111.062 38.5215 111.062 39.7109C111.062 40.9312 111.657 41.6797 112.57 41.6797C113.185 41.6797 113.657 41.3413 113.79 40.7363H114.856C114.733 41.813 113.882 42.6128 112.57 42.6128ZM119.43 40.1826V36.9321H120.517V42.5H119.45V41.5361H119.389C119.132 42.1309 118.558 42.5718 117.728 42.5718C116.651 42.5718 115.892 41.854 115.892 40.4697V36.9321H116.989V40.3364C116.989 41.0952 117.451 41.5771 118.117 41.5771C118.722 41.5771 119.43 41.1362 119.43 40.1826ZM122.947 35.0762V42.5H121.85V35.0762H122.947ZM124.023 40.9312C124.023 39.6597 125.1 39.3315 126.105 39.2598C126.474 39.2341 127.31 39.188 127.571 39.1777L127.561 38.7368C127.561 38.1113 127.182 37.7422 126.433 37.7422C125.787 37.7422 125.397 38.0396 125.285 38.4497H124.198C124.3 37.5269 125.162 36.8604 126.474 36.8604C127.356 36.8604 128.658 37.1885 128.658 38.7983V42.5H127.592V41.7412H127.551C127.335 42.1616 126.823 42.623 125.9 42.623C124.844 42.623 124.023 42.0181 124.023 40.9312ZM125.09 40.9414C125.09 41.4746 125.531 41.7515 126.146 41.7515C127.038 41.7515 127.571 41.1567 127.571 40.4902V39.9775L126.259 40.0698C125.541 40.1211 125.09 40.3877 125.09 40.9414ZM132.339 42.6128C130.719 42.6128 129.735 41.4131 129.735 39.7417C129.735 38.0396 130.75 36.8604 132.319 36.8604C133.59 36.8604 134.513 37.6089 134.626 38.7368H133.56C133.447 38.2139 133.026 37.7729 132.339 37.7729C131.437 37.7729 130.832 38.5215 130.832 39.7109C130.832 40.9312 131.427 41.6797 132.339 41.6797C132.955 41.6797 133.426 41.3413 133.56 40.7363H134.626C134.503 41.813 133.652 42.6128 132.339 42.6128ZM135.662 42.5V36.9321H136.759V42.5H135.662ZM136.215 36.0708C135.836 36.0708 135.518 35.7837 135.518 35.4248C135.518 35.0659 135.836 34.7788 136.215 34.7788C136.584 34.7788 136.902 35.0659 136.902 35.4248C136.902 35.7837 136.584 36.0708 136.215 36.0708ZM140.45 42.6128C138.871 42.6128 137.846 41.4644 137.846 39.7417C137.846 38.0088 138.871 36.8604 140.45 36.8604C142.019 36.8604 143.044 38.0088 143.044 39.7417C143.044 41.4644 142.019 42.6128 140.45 42.6128ZM140.45 41.7002C141.455 41.7002 141.937 40.8081 141.937 39.7417C141.937 38.6753 141.455 37.7627 140.45 37.7627C139.425 37.7627 138.943 38.6753 138.943 39.7417C138.943 40.8081 139.425 41.7002 140.45 41.7002ZM139.999 36.1836L140.84 34.5122H141.988L140.86 36.1836H139.999ZM145.218 39.1982V42.5H144.121V36.9321H145.177V37.8447H145.239C145.505 37.25 146.049 36.8604 146.879 36.8604C148.028 36.8604 148.776 37.5781 148.776 38.9624V42.5H147.689V39.0957C147.689 38.2856 147.249 37.8037 146.51 37.8037C145.762 37.8037 145.218 38.3062 145.218 39.1982Z" fill="white"/>
<g clip-path="url(#clip2_521_1140)">
<path opacity="0.1" d="M29.5 54V321" stroke="white" stroke-width="0.75"/>
<g clip-path="url(#clip3_521_1140)">
<path opacity="0.6" d="M45.7832 64.4961C45.5986 63.5425 44.8091 63.0093 43.8657 63.0093C42.584 63.0093 41.6304 63.9937 41.6304 65.7881C41.6304 67.5928 42.5942 68.5669 43.8657 68.5669C44.7988 68.5669 45.5884 68.0439 45.7832 67.1006L46.9214 67.1108C46.6855 68.5771 45.4858 69.6025 43.8555 69.6025C41.9175 69.6025 40.5127 68.1567 40.5127 65.7881C40.5127 63.4092 41.9277 61.9736 43.8555 61.9736C45.4243 61.9736 46.665 62.8965 46.9214 64.4961H45.7832ZM48.0493 69.5V63.9321H49.1465V69.5H48.0493ZM48.603 63.0708C48.2236 63.0708 47.9058 62.7837 47.9058 62.4248C47.9058 62.0659 48.2236 61.7788 48.603 61.7788C48.9722 61.7788 49.29 62.0659 49.29 62.4248C49.29 62.7837 48.9722 63.0708 48.603 63.0708ZM50.4795 69.5V63.9321H51.5356V64.814H51.5972C51.8022 64.2192 52.356 63.8501 53.0122 63.8501C53.1455 63.8501 53.3608 63.8604 53.4736 63.8706V64.9165C53.3813 64.896 53.125 64.855 52.8994 64.855C52.1406 64.855 51.5767 65.3779 51.5767 66.106V69.5H50.4795ZM56.4678 69.6128C54.8477 69.6128 53.8633 68.4131 53.8633 66.7417C53.8633 65.0396 54.8784 63.8604 56.4473 63.8604C57.7188 63.8604 58.6416 64.6089 58.7544 65.7368H57.688C57.5752 65.2139 57.1548 64.7729 56.4678 64.7729C55.5654 64.7729 54.9604 65.5215 54.9604 66.7109C54.9604 67.9312 55.5552 68.6797 56.4678 68.6797C57.083 68.6797 57.5547 68.3413 57.688 67.7363H58.7544C58.6313 68.813 57.7803 69.6128 56.4678 69.6128ZM63.3276 67.1826V63.9321H64.4146V69.5H63.3481V68.5361H63.2866C63.0303 69.1309 62.4561 69.5718 61.6255 69.5718C60.5488 69.5718 59.79 68.854 59.79 67.4697V63.9321H60.8872V67.3364C60.8872 68.0952 61.3486 68.5771 62.0151 68.5771C62.6201 68.5771 63.3276 68.1362 63.3276 67.1826ZM66.8447 62.0762V69.5H65.7476V62.0762H66.8447ZM67.9214 67.9312C67.9214 66.6597 68.998 66.3315 70.0029 66.2598C70.3721 66.2341 71.2078 66.188 71.4692 66.1777L71.459 65.7368C71.459 65.1113 71.0796 64.7422 70.3311 64.7422C69.6851 64.7422 69.2954 65.0396 69.1826 65.4497H68.0957C68.1982 64.5269 69.0596 63.8604 70.3721 63.8604C71.2539 63.8604 72.5562 64.1885 72.5562 65.7983V69.5H71.4897V68.7412H71.4487C71.2334 69.1616 70.7207 69.623 69.7979 69.623C68.7417 69.623 67.9214 69.0181 67.9214 67.9312ZM68.9878 67.9414C68.9878 68.4746 69.4287 68.7515 70.0439 68.7515C70.936 68.7515 71.4692 68.1567 71.4692 67.4902V66.9775L70.1567 67.0698C69.439 67.1211 68.9878 67.3877 68.9878 67.9414ZM76.2373 69.6128C74.6172 69.6128 73.6328 68.4131 73.6328 66.7417C73.6328 65.0396 74.6479 63.8604 76.2168 63.8604C77.4883 63.8604 78.4111 64.6089 78.5239 65.7368H77.4575C77.3447 65.2139 76.9243 64.7729 76.2373 64.7729C75.335 64.7729 74.73 65.5215 74.73 66.7109C74.73 67.9312 75.3247 68.6797 76.2373 68.6797C76.8525 68.6797 77.3242 68.3413 77.4575 67.7363H78.5239C78.4009 68.813 77.5498 69.6128 76.2373 69.6128ZM79.5596 69.5V63.9321H80.6567V69.5H79.5596ZM80.1133 63.0708C79.7339 63.0708 79.416 62.7837 79.416 62.4248C79.416 62.0659 79.7339 61.7788 80.1133 61.7788C80.4824 61.7788 80.8003 62.0659 80.8003 62.4248C80.8003 62.7837 80.4824 63.0708 80.1133 63.0708ZM84.3481 69.6128C82.769 69.6128 81.7437 68.4644 81.7437 66.7417C81.7437 65.0088 82.769 63.8604 84.3481 63.8604C85.917 63.8604 86.9424 65.0088 86.9424 66.7417C86.9424 68.4644 85.917 69.6128 84.3481 69.6128ZM84.3481 68.7002C85.353 68.7002 85.835 67.8081 85.835 66.7417C85.835 65.6753 85.353 64.7627 84.3481 64.7627C83.3228 64.7627 82.8408 65.6753 82.8408 66.7417C82.8408 67.8081 83.3228 68.7002 84.3481 68.7002ZM83.897 63.1836L84.7378 61.5122H85.8862L84.7583 63.1836H83.897ZM89.1162 66.1982V69.5H88.019V63.9321H89.0752V64.8447H89.1367C89.4033 64.25 89.9468 63.8604 90.7773 63.8604C91.9258 63.8604 92.6743 64.5781 92.6743 65.9624V69.5H91.5874V66.0957C91.5874 65.2856 91.1465 64.8037 90.4082 64.8037C89.6597 64.8037 89.1162 65.3062 89.1162 66.1982ZM96.6631 69.5V62.0762H99.3086C101.031 62.0762 101.882 63.1118 101.882 64.4858C101.882 65.8496 101.031 66.8955 99.3086 66.8955H97.791V69.5H96.6631ZM97.791 65.9316H99.1958C100.293 65.9316 100.744 65.3164 100.744 64.4858C100.744 63.645 100.293 63.04 99.1958 63.04H97.791V65.9316ZM105.307 69.6128C103.667 69.6128 102.662 68.4849 102.662 66.752C102.662 65.0396 103.687 63.8604 105.235 63.8604C106.507 63.8604 107.707 64.6499 107.707 66.6597V67.0493H103.749C103.779 68.1055 104.4 68.7104 105.317 68.7104C105.943 68.7104 106.343 68.4438 106.527 68.1055H107.635C107.389 69.0078 106.527 69.6128 105.307 69.6128ZM103.759 66.229H106.63C106.63 65.3779 106.086 64.7627 105.246 64.7627C104.369 64.7627 103.8 65.4395 103.759 66.229ZM108.537 67.9312C108.537 66.6597 109.614 66.3315 110.619 66.2598C110.988 66.2341 111.823 66.188 112.085 66.1777L112.075 65.7368C112.075 65.1113 111.695 64.7422 110.947 64.7422C110.301 64.7422 109.911 65.0396 109.798 65.4497H108.711C108.814 64.5269 109.675 63.8604 110.988 63.8604C111.87 63.8604 113.172 64.1885 113.172 65.7983V69.5H112.105V68.7412H112.064C111.849 69.1616 111.336 69.623 110.414 69.623C109.357 69.623 108.537 69.0181 108.537 67.9312ZM109.604 67.9414C109.604 68.4746 110.044 68.7515 110.66 68.7515C111.552 68.7515 112.085 68.1567 112.085 67.4902V66.9775L110.772 67.0698C110.055 67.1211 109.604 67.3877 109.604 67.9414ZM117.099 63.9321V64.8037H115.961V67.8594C115.961 68.4849 116.279 68.5977 116.627 68.6079C116.781 68.6079 117.027 68.5874 117.181 68.5771V69.5308C117.027 69.5513 116.792 69.5718 116.494 69.5718C115.633 69.5718 114.864 69.1001 114.874 68.085V64.8037H114.054V63.9321H114.874V62.5991H115.961V63.9321H117.099ZM120.462 69.6128C118.883 69.6128 117.858 68.4644 117.858 66.7417C117.858 65.0088 118.883 63.8604 120.462 63.8604C122.031 63.8604 123.057 65.0088 123.057 66.7417C123.057 68.4644 122.031 69.6128 120.462 69.6128ZM120.462 68.7002C121.467 68.7002 121.949 67.8081 121.949 66.7417C121.949 65.6753 121.467 64.7627 120.462 64.7627C119.437 64.7627 118.955 65.6753 118.955 66.7417C118.955 67.8081 119.437 68.7002 120.462 68.7002ZM125.23 66.1982V69.5H124.133V63.9321H125.189V64.8447H125.251C125.518 64.25 126.061 63.8604 126.892 63.8604C128.04 63.8604 128.789 64.5781 128.789 65.9624V69.5H127.702V66.0957C127.702 65.2856 127.261 64.8037 126.522 64.8037C125.774 64.8037 125.23 65.3062 125.23 66.1982ZM129.865 67.9312C129.865 66.6597 130.942 66.3315 131.947 66.2598C132.316 66.2341 133.152 66.188 133.413 66.1777L133.403 65.7368C133.403 65.1113 133.023 64.7422 132.275 64.7422C131.629 64.7422 131.239 65.0396 131.126 65.4497H130.04C130.142 64.5269 131.003 63.8604 132.316 63.8604C133.198 63.8604 134.5 64.1885 134.5 65.7983V69.5H133.434V68.7412H133.393C133.177 69.1616 132.665 69.623 131.742 69.623C130.686 69.623 129.865 69.0181 129.865 67.9312ZM130.932 67.9414C130.932 68.4746 131.373 68.7515 131.988 68.7515C132.88 68.7515 133.413 68.1567 133.413 67.4902V66.9775L132.101 67.0698C131.383 67.1211 130.932 67.3877 130.932 67.9414ZM136.92 62.0762V69.5H135.823V62.0762H136.92Z" fill="white"/>
<rect x="34" y="81" width="168" height="24" rx="7.5" fill="white" fill-opacity="0.04"/>
<path d="M40.564 96.5V95.7515L44.4604 90.0503H40.5229V89.0762H45.8447V89.8247L41.9482 95.5259H45.8755V96.5H40.564ZM49.4233 96.6128C47.8442 96.6128 46.8188 95.4644 46.8188 93.7417C46.8188 92.0088 47.8442 90.8604 49.4233 90.8604C50.9922 90.8604 52.0176 92.0088 52.0176 93.7417C52.0176 95.4644 50.9922 96.6128 49.4233 96.6128ZM49.4233 95.7002C50.4282 95.7002 50.9102 94.8081 50.9102 93.7417C50.9102 92.6753 50.4282 91.7627 49.4233 91.7627C48.3979 91.7627 47.916 92.6753 47.916 93.7417C47.916 94.8081 48.3979 95.7002 49.4233 95.7002ZM54.1914 93.1982V96.5H53.0942V90.9321H54.1504V91.8447H54.2119C54.4785 91.25 55.022 90.8604 55.8525 90.8604C57.001 90.8604 57.7495 91.5781 57.7495 92.9624V96.5H56.6626V93.0957C56.6626 92.2856 56.2217 91.8037 55.4834 91.8037C54.7349 91.8037 54.1914 92.3062 54.1914 93.1982ZM58.8262 94.9312C58.8262 93.6597 59.9028 93.3315 60.9077 93.2598C61.2769 93.2341 62.1125 93.188 62.374 93.1777L62.3638 92.7368C62.3638 92.1113 61.9844 91.7422 61.2358 91.7422C60.5898 91.7422 60.2002 92.0396 60.0874 92.4497H59.0005C59.103 91.5269 59.9644 90.8604 61.2769 90.8604C62.1587 90.8604 63.4609 91.1885 63.4609 92.7983V96.5H62.3945V95.7412H62.3535C62.1382 96.1616 61.6255 96.623 60.7026 96.623C59.6465 96.623 58.8262 96.0181 58.8262 94.9312ZM59.8926 94.9414C59.8926 95.4746 60.3335 95.7515 60.9487 95.7515C61.8408 95.7515 62.374 95.1567 62.374 94.4902V93.9775L61.0615 94.0698C60.3438 94.1211 59.8926 94.3877 59.8926 94.9414ZM72.2075 89.0762H73.3354V93.957C73.3354 95.5156 72.1665 96.623 70.3926 96.623C68.5981 96.623 67.4395 95.5156 67.4395 93.957V89.0762H68.5674V93.8647C68.5674 94.8696 69.2646 95.5977 70.3926 95.5977C71.5103 95.5977 72.2075 94.8696 72.2075 93.8647V89.0762ZM74.7607 96.5V90.9321H75.8169V91.814H75.8784C76.0835 91.2192 76.6372 90.8501 77.2935 90.8501C77.4268 90.8501 77.6421 90.8604 77.7549 90.8706V91.9165C77.6626 91.896 77.4062 91.855 77.1807 91.855C76.4219 91.855 75.8579 92.3779 75.8579 93.106V96.5H74.7607ZM78.6675 96.5V89.0762H79.7544V91.8345H79.8159C80.021 91.4858 80.3901 90.8604 81.4155 90.8604C82.7588 90.8604 83.7637 91.9165 83.7637 93.7314C83.7637 95.5259 82.7793 96.6128 81.4258 96.6128C80.4106 96.6128 80.021 95.9976 79.8159 95.6284H79.7339V96.5H78.6675ZM79.7339 93.7109C79.7339 94.8799 80.2568 95.6797 81.1797 95.6797C82.1436 95.6797 82.646 94.8286 82.646 93.7109C82.646 92.6138 82.1538 91.7935 81.1797 91.7935C80.2466 91.7935 79.7339 92.5522 79.7339 93.7109ZM84.5942 94.9312C84.5942 93.6597 85.6709 93.3315 86.6758 93.2598C87.0449 93.2341 87.8806 93.188 88.1421 93.1777L88.1318 92.7368C88.1318 92.1113 87.7524 91.7422 87.0039 91.7422C86.3579 91.7422 85.9683 92.0396 85.8555 92.4497H84.7686C84.8711 91.5269 85.7324 90.8604 87.0449 90.8604C87.9268 90.8604 89.229 91.1885 89.229 92.7983V96.5H88.1626V95.7412H88.1216C87.9062 96.1616 87.3936 96.623 86.4707 96.623C85.4146 96.623 84.5942 96.0181 84.5942 94.9312ZM85.6606 94.9414C85.6606 95.4746 86.1016 95.7515 86.7168 95.7515C87.6089 95.7515 88.1421 95.1567 88.1421 94.4902V93.9775L86.8296 94.0698C86.1118 94.1211 85.6606 94.3877 85.6606 94.9414ZM91.6489 93.1982V96.5H90.5518V90.9321H91.6079V91.8447H91.6694C91.936 91.25 92.4795 90.8604 93.3101 90.8604C94.4585 90.8604 95.207 91.5781 95.207 92.9624V96.5H94.1201V93.0957C94.1201 92.2856 93.6792 91.8037 92.9409 91.8037C92.1924 91.8037 91.6489 92.3062 91.6489 93.1982ZM96.2837 94.9312C96.2837 93.6597 97.3604 93.3315 98.3652 93.2598C98.7344 93.2341 99.5701 93.188 99.8315 93.1777L99.8213 92.7368C99.8213 92.1113 99.4419 91.7422 98.6934 91.7422C98.0474 91.7422 97.6577 92.0396 97.5449 92.4497H96.458C96.5605 91.5269 97.4219 90.8604 98.7344 90.8604C99.6162 90.8604 100.918 91.1885 100.918 92.7983V96.5H99.8521V95.7412H99.811C99.5957 96.1616 99.083 96.623 98.1602 96.623C97.104 96.623 96.2837 96.0181 96.2837 94.9312ZM97.3501 94.9414C97.3501 95.4746 97.791 95.7515 98.4062 95.7515C99.2983 95.7515 99.8315 95.1567 99.8315 94.4902V93.9775L98.519 94.0698C97.8013 94.1211 97.3501 94.3877 97.3501 94.9414Z" fill="white"/>
<path opacity="0.6" d="M40.564 123.5V122.751L44.4604 117.05H40.5229V116.076H45.8447V116.825L41.9482 122.526H45.8755V123.5H40.564ZM49.4233 123.613C47.8442 123.613 46.8188 122.464 46.8188 120.742C46.8188 119.009 47.8442 117.86 49.4233 117.86C50.9922 117.86 52.0176 119.009 52.0176 120.742C52.0176 122.464 50.9922 123.613 49.4233 123.613ZM49.4233 122.7C50.4282 122.7 50.9102 121.808 50.9102 120.742C50.9102 119.675 50.4282 118.763 49.4233 118.763C48.3979 118.763 47.916 119.675 47.916 120.742C47.916 121.808 48.3979 122.7 49.4233 122.7ZM54.1914 120.198V123.5H53.0942V117.932H54.1504V118.845H54.2119C54.4785 118.25 55.022 117.86 55.8525 117.86C57.001 117.86 57.7495 118.578 57.7495 119.962V123.5H56.6626V120.096C56.6626 119.286 56.2217 118.804 55.4834 118.804C54.7349 118.804 54.1914 119.306 54.1914 120.198ZM58.8262 121.931C58.8262 120.66 59.9028 120.332 60.9077 120.26C61.2769 120.234 62.1125 120.188 62.374 120.178L62.3638 119.737C62.3638 119.111 61.9844 118.742 61.2358 118.742C60.5898 118.742 60.2002 119.04 60.0874 119.45H59.0005C59.103 118.527 59.9644 117.86 61.2769 117.86C62.1587 117.86 63.4609 118.188 63.4609 119.798V123.5H62.3945V122.741H62.3535C62.1382 123.162 61.6255 123.623 60.7026 123.623C59.6465 123.623 58.8262 123.018 58.8262 121.931ZM59.8926 121.941C59.8926 122.475 60.3335 122.751 60.9487 122.751C61.8408 122.751 62.374 122.157 62.374 121.49V120.978L61.0615 121.07C60.3438 121.121 59.8926 121.388 59.8926 121.941ZM67.4395 123.5V116.076H70.085C71.8076 116.076 72.6587 117.04 72.6587 118.404C72.6587 119.404 72.2075 120.162 71.3052 120.496L72.9458 123.5H71.6641L70.1567 120.701H70.085H68.5674V123.5H67.4395ZM68.5674 119.727H69.9722C71.0693 119.727 71.5205 119.245 71.5205 118.404C71.5205 117.563 71.0693 117.04 69.9722 117.04H68.5674V119.727ZM77.355 121.183V117.932H78.4419V123.5H77.3755V122.536H77.314C77.0576 123.131 76.4834 123.572 75.6528 123.572C74.5762 123.572 73.8174 122.854 73.8174 121.47V117.932H74.9146V121.336C74.9146 122.095 75.376 122.577 76.0425 122.577C76.6475 122.577 77.355 122.136 77.355 121.183ZM79.7749 123.5V117.932H80.8311V118.814H80.8926C81.0977 118.219 81.6514 117.85 82.3076 117.85C82.4409 117.85 82.6562 117.86 82.769 117.871V118.917C82.6768 118.896 82.4204 118.855 82.1948 118.855C81.436 118.855 80.8721 119.378 80.8721 120.106V123.5H79.7749ZM83.2715 121.931C83.2715 120.66 84.3481 120.332 85.353 120.26C85.7222 120.234 86.5579 120.188 86.8193 120.178L86.8091 119.737C86.8091 119.111 86.4297 118.742 85.6812 118.742C85.0352 118.742 84.6455 119.04 84.5327 119.45H83.4458C83.5483 118.527 84.4097 117.86 85.7222 117.86C86.604 117.86 87.9062 118.188 87.9062 119.798V123.5H86.8398V122.741H86.7988C86.5835 123.162 86.0708 123.623 85.1479 123.623C84.0918 123.623 83.2715 123.018 83.2715 121.931ZM84.3379 121.941C84.3379 122.475 84.7788 122.751 85.394 122.751C86.2861 122.751 86.8193 122.157 86.8193 121.49V120.978L85.5068 121.07C84.7891 121.121 84.3379 121.388 84.3379 121.941ZM90.3262 116.076V123.5H89.229V116.076H90.3262Z" fill="white"/>
<path opacity="0.6" d="M41.8867 143.076V150.5H40.7588V143.076H41.8867ZM44.3989 147.198V150.5H43.3018V144.932H44.3579V145.845H44.4194C44.686 145.25 45.2295 144.86 46.0601 144.86C47.2085 144.86 47.957 145.578 47.957 146.962V150.5H46.8701V147.096C46.8701 146.286 46.4292 145.804 45.6909 145.804C44.9424 145.804 44.3989 146.306 44.3989 147.198ZM51.8945 144.932V145.804H50.7563V148.859C50.7563 149.485 51.0742 149.598 51.4229 149.608C51.5767 149.608 51.8228 149.587 51.9766 149.577V150.531C51.8228 150.551 51.5869 150.572 51.2896 150.572C50.4282 150.572 49.6592 150.1 49.6694 149.085V145.804H48.8491V144.932H49.6694V143.599H50.7563V144.932H51.8945ZM55.2988 150.613C53.6582 150.613 52.6533 149.485 52.6533 147.752C52.6533 146.04 53.6787 144.86 55.2271 144.86C56.4985 144.86 57.6982 145.65 57.6982 147.66V148.049H53.7402C53.771 149.105 54.3914 149.71 55.3091 149.71C55.9346 149.71 56.3345 149.444 56.519 149.105H57.6265C57.3804 150.008 56.519 150.613 55.2988 150.613ZM53.7505 147.229H56.6216C56.6216 146.378 56.0781 145.763 55.2373 145.763C54.3606 145.763 53.7915 146.439 53.7505 147.229ZM58.7852 150.5V144.932H59.8413V145.814H59.9028C60.1079 145.219 60.6616 144.85 61.3179 144.85C61.4512 144.85 61.6665 144.86 61.7793 144.871V145.917C61.687 145.896 61.4307 145.855 61.2051 145.855C60.4463 145.855 59.8823 146.378 59.8823 147.106V150.5H58.7852ZM65.7271 146.45C65.6245 146.009 65.2759 145.722 64.6709 145.722C64.0454 145.722 63.5942 146.05 63.6045 146.47C63.5942 146.798 63.8608 147.034 64.4761 147.178L65.3579 147.383C66.3833 147.608 66.8755 148.101 66.8857 148.89C66.8755 149.895 66.0347 150.613 64.6094 150.613C63.2764 150.613 62.4766 150.018 62.3433 148.982H63.4609C63.5532 149.485 63.9429 149.731 64.5991 149.731C65.3066 149.731 65.7578 149.444 65.7681 148.972C65.7578 148.613 65.4912 148.377 64.9067 148.244L64.0352 148.06C63.0303 147.834 62.5073 147.301 62.5073 146.532C62.5073 145.537 63.3687 144.86 64.6606 144.86C65.9014 144.86 66.6704 145.496 66.7832 146.45H65.7271ZM70.3516 150.613C68.7109 150.613 67.7061 149.485 67.7061 147.752C67.7061 146.04 68.7314 144.86 70.2798 144.86C71.5513 144.86 72.751 145.65 72.751 147.66V148.049H68.793C68.8237 149.105 69.4441 149.71 70.3618 149.71C70.9873 149.71 71.3872 149.444 71.5718 149.105H72.6792C72.4331 150.008 71.5718 150.613 70.3516 150.613ZM68.8032 147.229H71.6743C71.6743 146.378 71.1309 145.763 70.29 145.763C69.4133 145.763 68.8442 146.439 68.8032 147.229ZM76.1963 150.613C74.5762 150.613 73.5918 149.413 73.5918 147.742C73.5918 146.04 74.6069 144.86 76.1758 144.86C77.4473 144.86 78.3701 145.609 78.4829 146.737H77.4165C77.3037 146.214 76.8833 145.773 76.1963 145.773C75.2939 145.773 74.689 146.521 74.689 147.711C74.689 148.931 75.2837 149.68 76.1963 149.68C76.8115 149.68 77.2832 149.341 77.4165 148.736H78.4829C78.3599 149.813 77.5088 150.613 76.1963 150.613ZM81.877 150.613C80.2568 150.613 79.2725 149.413 79.2725 147.742C79.2725 146.04 80.2876 144.86 81.8564 144.86C83.1279 144.86 84.0508 145.609 84.1636 146.737H83.0972C82.9844 146.214 82.564 145.773 81.877 145.773C80.9746 145.773 80.3696 146.521 80.3696 147.711C80.3696 148.931 80.9644 149.68 81.877 149.68C82.4922 149.68 82.9639 149.341 83.0972 148.736H84.1636C84.0405 149.813 83.1895 150.613 81.877 150.613ZM85.1992 150.5V144.932H86.2964V150.5H85.1992ZM85.7529 144.071C85.3735 144.071 85.0557 143.784 85.0557 143.425C85.0557 143.066 85.3735 142.779 85.7529 142.779C86.1221 142.779 86.4399 143.066 86.4399 143.425C86.4399 143.784 86.1221 144.071 85.7529 144.071ZM89.9878 150.613C88.4087 150.613 87.3833 149.464 87.3833 147.742C87.3833 146.009 88.4087 144.86 89.9878 144.86C91.5566 144.86 92.582 146.009 92.582 147.742C92.582 149.464 91.5566 150.613 89.9878 150.613ZM89.9878 149.7C90.9927 149.7 91.4746 148.808 91.4746 147.742C91.4746 146.675 90.9927 145.763 89.9878 145.763C88.9624 145.763 88.4805 146.675 88.4805 147.742C88.4805 148.808 88.9624 149.7 89.9878 149.7ZM94.7559 147.198V150.5H93.6587V144.932H94.7148V145.845H94.7764C95.043 145.25 95.5864 144.86 96.417 144.86C97.5654 144.86 98.314 145.578 98.314 146.962V150.5H97.2271V147.096C97.2271 146.286 96.7861 145.804 96.0479 145.804C95.2993 145.804 94.7559 146.306 94.7559 147.198ZM102.046 150.613C100.406 150.613 99.4009 149.485 99.4009 147.752C99.4009 146.04 100.426 144.86 101.975 144.86C103.246 144.86 104.446 145.65 104.446 147.66V148.049H100.488C100.519 149.105 101.139 149.71 102.057 149.71C102.682 149.71 103.082 149.444 103.267 149.105H104.374C104.128 150.008 103.267 150.613 102.046 150.613ZM100.498 147.229H103.369C103.369 146.378 102.826 145.763 101.985 145.763C101.108 145.763 100.539 146.439 100.498 147.229ZM108.66 146.45C108.558 146.009 108.209 145.722 107.604 145.722C106.979 145.722 106.527 146.05 106.538 146.47C106.527 146.798 106.794 147.034 107.409 147.178L108.291 147.383C109.316 147.608 109.809 148.101 109.819 148.89C109.809 149.895 108.968 150.613 107.542 150.613C106.209 150.613 105.41 150.018 105.276 148.982H106.394C106.486 149.485 106.876 149.731 107.532 149.731C108.24 149.731 108.691 149.444 108.701 148.972C108.691 148.613 108.424 148.377 107.84 148.244L106.968 148.06C105.963 147.834 105.44 147.301 105.44 146.532C105.44 145.537 106.302 144.86 107.594 144.86C108.834 144.86 109.604 145.496 109.716 146.45H108.66Z" fill="white"/>
<path opacity="0.6" d="M40.7588 177.5V170.076H43.4043C45.127 170.076 45.978 171.112 45.978 172.486C45.978 173.85 45.127 174.896 43.4043 174.896H41.8867V177.5H40.7588ZM41.8867 173.932H43.2915C44.3887 173.932 44.8398 173.316 44.8398 172.486C44.8398 171.645 44.3887 171.04 43.2915 171.04H41.8867V173.932ZM47.0752 177.5V171.932H48.1313V172.814H48.1929C48.3979 172.219 48.9517 171.85 49.6079 171.85C49.7412 171.85 49.9565 171.86 50.0693 171.871V172.917C49.9771 172.896 49.7207 172.855 49.4951 172.855C48.7363 172.855 48.1724 173.378 48.1724 174.106V177.5H47.0752ZM50.8896 177.5V171.932H51.9868V177.5H50.8896ZM51.4434 171.071C51.064 171.071 50.7461 170.784 50.7461 170.425C50.7461 170.066 51.064 169.779 51.4434 169.779C51.8125 169.779 52.1304 170.066 52.1304 170.425C52.1304 170.784 51.8125 171.071 51.4434 171.071ZM55.6782 177.613C54.0991 177.613 53.0737 176.464 53.0737 174.742C53.0737 173.009 54.0991 171.86 55.6782 171.86C57.2471 171.86 58.2725 173.009 58.2725 174.742C58.2725 176.464 57.2471 177.613 55.6782 177.613ZM55.6782 176.7C56.6831 176.7 57.165 175.808 57.165 174.742C57.165 173.675 56.6831 172.763 55.6782 172.763C54.6528 172.763 54.1709 173.675 54.1709 174.742C54.1709 175.808 54.6528 176.7 55.6782 176.7ZM59.3491 177.5V171.932H60.4053V172.814H60.4668C60.6719 172.219 61.2256 171.85 61.8818 171.85C62.0151 171.85 62.2305 171.86 62.3433 171.871V172.917C62.251 172.896 61.9946 172.855 61.769 172.855C61.0103 172.855 60.4463 173.378 60.4463 174.106V177.5H59.3491ZM63.1636 177.5V171.932H64.2607V177.5H63.1636ZM63.7173 171.071C63.3379 171.071 63.02 170.784 63.02 170.425C63.02 170.066 63.3379 169.779 63.7173 169.779C64.0864 169.779 64.4043 170.066 64.4043 170.425C64.4043 170.784 64.0864 171.071 63.7173 171.071ZM67.6753 177.613C66.332 177.613 65.3477 176.526 65.3477 174.731C65.3477 172.917 66.3423 171.86 67.6855 171.86C68.7212 171.86 69.1006 172.486 69.2954 172.834H69.3467V170.076H70.4438V177.5H69.3774V176.628H69.2954C69.0903 176.998 68.6904 177.613 67.6753 177.613ZM67.9214 176.68C68.8545 176.68 69.3774 175.88 69.3774 174.711C69.3774 173.552 68.8647 172.793 67.9214 172.793C66.9473 172.793 66.4653 173.614 66.4653 174.711C66.4653 175.829 66.9678 176.68 67.9214 176.68ZM71.6128 175.931C71.6128 174.66 72.6895 174.332 73.6943 174.26C74.0635 174.234 74.8992 174.188 75.1606 174.178L75.1504 173.737C75.1504 173.111 74.771 172.742 74.0225 172.742C73.3765 172.742 72.9868 173.04 72.874 173.45H71.7871C71.8896 172.527 72.751 171.86 74.0635 171.86C74.9453 171.86 76.2476 172.188 76.2476 173.798V177.5H75.1812V176.741H75.1401C74.9248 177.162 74.4121 177.623 73.4893 177.623C72.4331 177.623 71.6128 177.018 71.6128 175.931ZM72.6792 175.941C72.6792 176.475 73.1201 176.751 73.7354 176.751C74.6274 176.751 75.1606 176.157 75.1606 175.49V174.978L73.8481 175.07C73.1304 175.121 72.6792 175.388 72.6792 175.941ZM79.6519 177.613C78.3086 177.613 77.3242 176.526 77.3242 174.731C77.3242 172.917 78.3188 171.86 79.6621 171.86C80.6978 171.86 81.0771 172.486 81.272 172.834H81.3232V170.076H82.4204V177.5H81.354V176.628H81.272C81.0669 176.998 80.667 177.613 79.6519 177.613ZM79.8979 176.68C80.8311 176.68 81.354 175.88 81.354 174.711C81.354 173.552 80.8413 172.793 79.8979 172.793C78.9238 172.793 78.4419 173.614 78.4419 174.711C78.4419 175.829 78.9443 176.68 79.8979 176.68ZM86.2451 177.613C84.6045 177.613 83.5996 176.485 83.5996 174.752C83.5996 173.04 84.625 171.86 86.1733 171.86C87.4448 171.86 88.6445 172.65 88.6445 174.66V175.049H84.6865C84.7173 176.105 85.3376 176.71 86.2554 176.71C86.8809 176.71 87.2808 176.444 87.4653 176.105H88.5728C88.3267 177.008 87.4653 177.613 86.2451 177.613ZM84.6968 174.229H87.5679C87.5679 173.378 87.0244 172.763 86.1836 172.763C85.3069 172.763 84.7378 173.439 84.6968 174.229ZM92.8589 173.45C92.7563 173.009 92.4077 172.722 91.8027 172.722C91.1772 172.722 90.7261 173.05 90.7363 173.47C90.7261 173.798 90.9927 174.034 91.6079 174.178L92.4897 174.383C93.5151 174.608 94.0073 175.101 94.0176 175.89C94.0073 176.895 93.1665 177.613 91.7412 177.613C90.4082 177.613 89.6084 177.018 89.4751 175.982H90.5928C90.6851 176.485 91.0747 176.731 91.731 176.731C92.4385 176.731 92.8896 176.444 92.8999 175.972C92.8896 175.613 92.623 175.377 92.0386 175.244L91.167 175.06C90.1621 174.834 89.6392 174.301 89.6392 173.532C89.6392 172.537 90.5005 171.86 91.7925 171.86C93.0332 171.86 93.8022 172.496 93.915 173.45H92.8589ZM99.729 177.613C98.3857 177.613 97.4014 176.526 97.4014 174.731C97.4014 172.917 98.396 171.86 99.7393 171.86C100.775 171.86 101.154 172.486 101.349 172.834H101.4V170.076H102.498V177.5H101.431V176.628H101.349C101.144 176.998 100.744 177.613 99.729 177.613ZM99.9751 176.68C100.908 176.68 101.431 175.88 101.431 174.711C101.431 173.552 100.918 172.793 99.9751 172.793C99.001 172.793 98.519 173.614 98.519 174.711C98.519 175.829 99.0215 176.68 99.9751 176.68ZM106.322 177.613C104.682 177.613 103.677 176.485 103.677 174.752C103.677 173.04 104.702 171.86 106.25 171.86C107.522 171.86 108.722 172.65 108.722 174.66V175.049H104.764C104.794 176.105 105.415 176.71 106.333 176.71C106.958 176.71 107.358 176.444 107.542 176.105H108.65C108.404 177.008 107.542 177.613 106.322 177.613ZM104.774 174.229H107.645C107.645 173.378 107.102 172.763 106.261 172.763C105.384 172.763 104.815 173.439 104.774 174.229ZM112.464 177.5V170.076H115.11C116.833 170.076 117.684 171.112 117.684 172.486C117.684 173.85 116.833 174.896 115.11 174.896H113.592V177.5H112.464ZM113.592 173.932H114.997C116.094 173.932 116.545 173.316 116.545 172.486C116.545 171.645 116.094 171.04 114.997 171.04H113.592V173.932ZM118.473 175.931C118.473 174.66 119.55 174.332 120.555 174.26C120.924 174.234 121.76 174.188 122.021 174.178L122.011 173.737C122.011 173.111 121.631 172.742 120.883 172.742C120.237 172.742 119.847 173.04 119.734 173.45H118.647C118.75 172.527 119.611 171.86 120.924 171.86C121.806 171.86 123.108 172.188 123.108 173.798V177.5H122.042V176.741H122C121.785 177.162 121.272 177.623 120.35 177.623C119.293 177.623 118.473 177.018 118.473 175.931ZM119.54 175.941C119.54 176.475 119.98 176.751 120.596 176.751C121.488 176.751 122.021 176.157 122.021 175.49V174.978L120.708 175.07C119.991 175.121 119.54 175.388 119.54 175.941ZM127.558 173.45C127.456 173.009 127.107 172.722 126.502 172.722C125.876 172.722 125.425 173.05 125.436 173.47C125.425 173.798 125.692 174.034 126.307 174.178L127.189 174.383C128.214 174.608 128.707 175.101 128.717 175.89C128.707 176.895 127.866 177.613 126.44 177.613C125.107 177.613 124.308 177.018 124.174 175.982H125.292C125.384 176.485 125.774 176.731 126.43 176.731C127.138 176.731 127.589 176.444 127.599 175.972C127.589 175.613 127.322 175.377 126.738 175.244L125.866 175.06C124.861 174.834 124.338 174.301 124.338 173.532C124.338 172.537 125.2 171.86 126.492 171.86C127.732 171.86 128.501 172.496 128.614 173.45H127.558ZM132.142 177.613C130.562 177.613 129.537 176.464 129.537 174.742C129.537 173.009 130.562 171.86 132.142 171.86C133.71 171.86 134.736 173.009 134.736 174.742C134.736 176.464 133.71 177.613 132.142 177.613ZM132.142 176.7C133.146 176.7 133.628 175.808 133.628 174.742C133.628 173.675 133.146 172.763 132.142 172.763C131.116 172.763 130.634 173.675 130.634 174.742C130.634 175.808 131.116 176.7 132.142 176.7Z" fill="white"/>
<path opacity="0.6" d="M41.3945 204.5H40.1948L42.8608 197.076H44.1631L46.8394 204.5H45.6396L44.9629 202.542H42.0713L41.3945 204.5ZM42.3994 201.598H44.6348L43.5376 198.43H43.4863L42.3994 201.598ZM49.6797 204.613C48.3364 204.613 47.3521 203.526 47.3521 201.731C47.3521 199.917 48.3467 198.86 49.6899 198.86C50.7256 198.86 51.105 199.486 51.2998 199.834H51.3511V197.076H52.4482V204.5H51.3818V203.628H51.2998C51.0947 203.998 50.6948 204.613 49.6797 204.613ZM49.9258 203.68C50.8589 203.68 51.3818 202.88 51.3818 201.711C51.3818 200.552 50.8691 199.793 49.9258 199.793C48.9517 199.793 48.4697 200.614 48.4697 201.711C48.4697 202.829 48.9722 203.68 49.9258 203.68ZM56.2729 204.613C54.6323 204.613 53.6274 203.485 53.6274 201.752C53.6274 200.04 54.6528 198.86 56.2012 198.86C57.4727 198.86 58.6724 199.65 58.6724 201.66V202.049H54.7144C54.7451 203.105 55.3655 203.71 56.2832 203.71C56.9087 203.71 57.3086 203.444 57.4932 203.105H58.6006C58.3545 204.008 57.4932 204.613 56.2729 204.613ZM54.7246 201.229H57.5957C57.5957 200.378 57.0522 199.763 56.2114 199.763C55.3347 199.763 54.7656 200.439 54.7246 201.229ZM60.8564 197.076V204.5H59.7593V197.076H60.8564ZM61.9331 202.931C61.9331 201.66 63.0098 201.332 64.0146 201.26C64.3838 201.234 65.2195 201.188 65.481 201.178L65.4707 200.737C65.4707 200.111 65.0913 199.742 64.3428 199.742C63.6968 199.742 63.3071 200.04 63.1943 200.45H62.1074C62.21 199.527 63.0713 198.86 64.3838 198.86C65.2656 198.86 66.5679 199.188 66.5679 200.798V204.5H65.5015V203.741H65.4604C65.2451 204.162 64.7324 204.623 63.8096 204.623C62.7534 204.623 61.9331 204.018 61.9331 202.931ZM62.9995 202.941C62.9995 203.475 63.4404 203.751 64.0557 203.751C64.9478 203.751 65.481 203.157 65.481 202.49V201.978L64.1685 202.07C63.4507 202.121 62.9995 202.388 62.9995 202.941ZM68.9878 201.198V204.5H67.8906V198.932H68.9468V199.845H69.0083C69.2749 199.25 69.8184 198.86 70.6489 198.86C71.7974 198.86 72.5459 199.578 72.5459 200.962V204.5H71.459V201.096C71.459 200.286 71.0181 199.804 70.2798 199.804C69.5312 199.804 68.9878 200.306 68.9878 201.198ZM76.4834 198.932V199.804H75.3452V202.859C75.3452 203.485 75.6631 203.598 76.0117 203.608C76.1655 203.608 76.4116 203.587 76.5654 203.577V204.531C76.4116 204.551 76.1758 204.572 75.8784 204.572C75.0171 204.572 74.248 204.1 74.2583 203.085V199.804H73.438V198.932H74.2583V197.599H75.3452V198.932H76.4834ZM77.2935 202.931C77.2935 201.66 78.3701 201.332 79.375 201.26C79.7441 201.234 80.5798 201.188 80.8413 201.178L80.8311 200.737C80.8311 200.111 80.4517 199.742 79.7031 199.742C79.0571 199.742 78.6675 200.04 78.5547 200.45H77.4678C77.5703 199.527 78.4316 198.86 79.7441 198.86C80.626 198.86 81.9282 199.188 81.9282 200.798V204.5H80.8618V203.741H80.8208C80.6055 204.162 80.0928 204.623 79.1699 204.623C78.1138 204.623 77.2935 204.018 77.2935 202.931ZM78.3599 202.941C78.3599 203.475 78.8008 203.751 79.416 203.751C80.3081 203.751 80.8413 203.157 80.8413 202.49V201.978L79.5288 202.07C78.811 202.121 78.3599 202.388 78.3599 202.941ZM83.251 204.5V198.932H84.3071V199.845H84.3687C84.6045 199.219 85.1479 198.86 85.8862 198.86C86.6245 198.86 87.1475 199.229 87.3833 199.845H87.4448C87.7114 199.24 88.3062 198.86 89.1162 198.86C90.1211 198.86 90.8389 199.496 90.8389 200.768V204.5H89.7417V200.87C89.7417 200.122 89.27 199.804 88.6958 199.804C87.9883 199.804 87.5884 200.286 87.5884 200.952V204.5H86.5015V200.809C86.5015 200.204 86.0811 199.804 85.4863 199.804C84.8711 199.804 84.3481 200.316 84.3481 201.065V204.5H83.251ZM92.1616 204.5V198.932H93.2588V204.5H92.1616ZM92.7153 198.071C92.3359 198.071 92.0181 197.784 92.0181 197.425C92.0181 197.066 92.3359 196.779 92.7153 196.779C93.0845 196.779 93.4023 197.066 93.4023 197.425C93.4023 197.784 93.0845 198.071 92.7153 198.071ZM96.9912 204.613C95.3506 204.613 94.3457 203.485 94.3457 201.752C94.3457 200.04 95.3711 198.86 96.9194 198.86C98.1909 198.86 99.3906 199.65 99.3906 201.66V202.049H95.4326C95.4634 203.105 96.0837 203.71 97.0015 203.71C97.627 203.71 98.0269 203.444 98.2114 203.105H99.3188C99.0728 204.008 98.2114 204.613 96.9912 204.613ZM95.4429 201.229H98.314C98.314 200.378 97.7705 199.763 96.9297 199.763C96.053 199.763 95.4839 200.439 95.4429 201.229ZM101.575 201.198V204.5H100.478V198.932H101.534V199.845H101.595C101.862 199.25 102.405 198.86 103.236 198.86C104.384 198.86 105.133 199.578 105.133 200.962V204.5H104.046V201.096C104.046 200.286 103.605 199.804 102.867 199.804C102.118 199.804 101.575 200.306 101.575 201.198ZM109.07 198.932V199.804H107.932V202.859C107.932 203.485 108.25 203.598 108.599 203.608C108.752 203.608 108.999 203.587 109.152 203.577V204.531C108.999 204.551 108.763 204.572 108.465 204.572C107.604 204.572 106.835 204.1 106.845 203.085V199.804H106.025V198.932H106.845V197.599H107.932V198.932H109.07ZM112.434 204.613C110.854 204.613 109.829 203.464 109.829 201.742C109.829 200.009 110.854 198.86 112.434 198.86C114.002 198.86 115.028 200.009 115.028 201.742C115.028 203.464 114.002 204.613 112.434 204.613ZM112.434 203.7C113.438 203.7 113.92 202.808 113.92 201.742C113.92 200.675 113.438 199.763 112.434 199.763C111.408 199.763 110.926 200.675 110.926 201.742C110.926 202.808 111.408 203.7 112.434 203.7Z" fill="white"/>
<path opacity="0.6" d="M41.3945 231.5H40.1948L42.8608 224.076H44.1631L46.8394 231.5H45.6396L44.9629 229.542H42.0713L41.3945 231.5ZM42.3994 228.598H44.6348L43.5376 225.43H43.4863L42.3994 228.598ZM49.9565 231.613C48.3364 231.613 47.3521 230.413 47.3521 228.742C47.3521 227.04 48.3672 225.86 49.936 225.86C51.2075 225.86 52.1304 226.609 52.2432 227.737H51.1768C51.064 227.214 50.6436 226.773 49.9565 226.773C49.0542 226.773 48.4492 227.521 48.4492 228.711C48.4492 229.931 49.0439 230.68 49.9565 230.68C50.5718 230.68 51.0435 230.341 51.1768 229.736H52.2432C52.1201 230.813 51.269 231.613 49.9565 231.613ZM55.6372 231.613C54.0171 231.613 53.0327 230.413 53.0327 228.742C53.0327 227.04 54.0479 225.86 55.6167 225.86C56.8882 225.86 57.811 226.609 57.9238 227.737H56.8574C56.7446 227.214 56.3242 226.773 55.6372 226.773C54.7349 226.773 54.1299 227.521 54.1299 228.711C54.1299 229.931 54.7246 230.68 55.6372 230.68C56.2524 230.68 56.7241 230.341 56.8574 229.736H57.9238C57.8008 230.813 56.9497 231.613 55.6372 231.613ZM58.9595 231.5V225.932H60.0566V231.5H58.9595ZM59.5132 225.071C59.1338 225.071 58.8159 224.784 58.8159 224.425C58.8159 224.066 59.1338 223.779 59.5132 223.779C59.8823 223.779 60.2002 224.066 60.2002 224.425C60.2002 224.784 59.8823 225.071 59.5132 225.071ZM63.4712 231.613C62.1279 231.613 61.1436 230.526 61.1436 228.731C61.1436 226.917 62.1382 225.86 63.4814 225.86C64.5171 225.86 64.8965 226.486 65.0913 226.834H65.1426V224.076H66.2397V231.5H65.1733V230.628H65.0913C64.8862 230.998 64.4863 231.613 63.4712 231.613ZM63.7173 230.68C64.6504 230.68 65.1733 229.88 65.1733 228.711C65.1733 227.552 64.6606 226.793 63.7173 226.793C62.7432 226.793 62.2612 227.614 62.2612 228.711C62.2612 229.829 62.7637 230.68 63.7173 230.68ZM70.0645 231.613C68.4238 231.613 67.4189 230.485 67.4189 228.752C67.4189 227.04 68.4443 225.86 69.9927 225.86C71.2642 225.86 72.4639 226.65 72.4639 228.66V229.049H68.5059C68.5366 230.105 69.157 230.71 70.0747 230.71C70.7002 230.71 71.1001 230.444 71.2847 230.105H72.3921C72.146 231.008 71.2847 231.613 70.0645 231.613ZM68.5161 228.229H71.3872C71.3872 227.378 70.8438 226.763 70.0029 226.763C69.1262 226.763 68.5571 227.439 68.5161 228.229ZM74.6479 228.198V231.5H73.5508V225.932H74.6069V226.845H74.6685C74.9351 226.25 75.4785 225.86 76.3091 225.86C77.4575 225.86 78.2061 226.578 78.2061 227.962V231.5H77.1191V228.096C77.1191 227.286 76.6782 226.804 75.9399 226.804C75.1914 226.804 74.6479 227.306 74.6479 228.198ZM82.1436 225.932V226.804H81.0054V229.859C81.0054 230.485 81.3232 230.598 81.6719 230.608C81.8257 230.608 82.0718 230.587 82.2256 230.577V231.531C82.0718 231.551 81.8359 231.572 81.5386 231.572C80.6772 231.572 79.9082 231.1 79.9185 230.085V226.804H79.0981V225.932H79.9185V224.599H81.0054V225.932H82.1436ZM85.5479 231.613C83.9072 231.613 82.9023 230.485 82.9023 228.752C82.9023 227.04 83.9277 225.86 85.4761 225.86C86.7476 225.86 87.9473 226.65 87.9473 228.66V229.049H83.9893C84.02 230.105 84.6404 230.71 85.5581 230.71C86.1836 230.71 86.5835 230.444 86.7681 230.105H87.8755C87.6294 231.008 86.7681 231.613 85.5479 231.613ZM83.9995 228.229H86.8706C86.8706 227.378 86.3271 226.763 85.4863 226.763C84.6096 226.763 84.0405 227.439 83.9995 228.229ZM92.1616 227.45C92.0591 227.009 91.7104 226.722 91.1055 226.722C90.48 226.722 90.0288 227.05 90.0391 227.47C90.0288 227.798 90.2954 228.034 90.9106 228.178L91.7925 228.383C92.8179 228.608 93.3101 229.101 93.3203 229.89C93.3101 230.895 92.4692 231.613 91.0439 231.613C89.7109 231.613 88.9111 231.018 88.7778 229.982H89.8955C89.9878 230.485 90.3774 230.731 91.0337 230.731C91.7412 230.731 92.1924 230.444 92.2026 229.972C92.1924 229.613 91.9258 229.377 91.3413 229.244L90.4697 229.06C89.4648 228.834 88.9419 228.301 88.9419 227.532C88.9419 226.537 89.8032 225.86 91.0952 225.86C92.3359 225.86 93.105 226.496 93.2178 227.45H92.1616Z" fill="white"/>
<path opacity="0.6" d="M45.7729 253.424C45.4961 252.542 44.8296 252.009 43.8452 252.009C42.5942 252.009 41.6304 252.994 41.6304 254.788C41.6304 256.583 42.584 257.567 43.8965 257.567C45.0808 257.567 45.8652 256.818 45.8857 255.629H44.0605V254.696H46.9829V255.537C46.9829 257.413 45.6909 258.603 43.8862 258.603C41.8765 258.603 40.5127 257.136 40.5127 254.788C40.5127 252.419 41.9175 250.974 43.835 250.974C45.4448 250.974 46.6753 251.979 46.9316 253.424H45.7729ZM48.5415 258.5V252.932H49.6387V258.5H48.5415ZM49.0952 252.071C48.7158 252.071 48.3979 251.784 48.3979 251.425C48.3979 251.066 48.7158 250.779 49.0952 250.779C49.4644 250.779 49.7822 251.066 49.7822 251.425C49.7822 251.784 49.4644 252.071 49.0952 252.071ZM50.9717 258.5V252.932H52.0278V253.814H52.0894C52.2944 253.219 52.8481 252.85 53.5044 252.85C53.6377 252.85 53.853 252.86 53.9658 252.871V253.917C53.8735 253.896 53.6172 253.855 53.3916 253.855C52.6328 253.855 52.0688 254.378 52.0688 255.106V258.5H50.9717ZM56.96 258.613C55.3809 258.613 54.3555 257.464 54.3555 255.742C54.3555 254.009 55.3809 252.86 56.96 252.86C58.5288 252.86 59.5542 254.009 59.5542 255.742C59.5542 257.464 58.5288 258.613 56.96 258.613ZM56.96 257.7C57.9648 257.7 58.4468 256.808 58.4468 255.742C58.4468 254.675 57.9648 253.763 56.96 253.763C55.9346 253.763 55.4526 254.675 55.4526 255.742C55.4526 256.808 55.9346 257.7 56.96 257.7ZM63.7583 254.45C63.6558 254.009 63.3071 253.722 62.7021 253.722C62.0767 253.722 61.6255 254.05 61.6357 254.47C61.6255 254.798 61.8921 255.034 62.5073 255.178L63.3892 255.383C64.4146 255.608 64.9067 256.101 64.917 256.89C64.9067 257.895 64.0659 258.613 62.6406 258.613C61.3076 258.613 60.5078 258.018 60.3745 256.982H61.4922C61.5845 257.485 61.9741 257.731 62.6304 257.731C63.3379 257.731 63.7891 257.444 63.7993 256.972C63.7891 256.613 63.5225 256.377 62.938 256.244L62.0664 256.06C61.0615 255.834 60.5386 255.301 60.5386 254.532C60.5386 253.537 61.3999 252.86 62.6919 252.86C63.9326 252.86 64.7017 253.496 64.8145 254.45H63.7583Z" fill="white"/>
<path opacity="0.6" d="M43.1685 285.5H40.7588V278.076H43.2402C45.4243 278.076 46.7368 279.471 46.7368 281.778C46.7368 284.095 45.4243 285.5 43.1685 285.5ZM41.8867 284.516H43.1069C44.7886 284.516 45.6191 283.531 45.6191 281.778C45.6191 280.035 44.7886 279.061 43.1685 279.061H41.8867V284.516ZM47.916 285.5V279.932H49.0132V285.5H47.916ZM48.4697 279.071C48.0903 279.071 47.7725 278.784 47.7725 278.425C47.7725 278.066 48.0903 277.779 48.4697 277.779C48.8389 277.779 49.1567 278.066 49.1567 278.425C49.1567 278.784 48.8389 279.071 48.4697 279.071ZM53.4736 281.45C53.3711 281.009 53.0225 280.722 52.4175 280.722C51.792 280.722 51.3408 281.05 51.3511 281.47C51.3408 281.798 51.6074 282.034 52.2227 282.178L53.1045 282.383C54.1299 282.608 54.6221 283.101 54.6323 283.89C54.6221 284.895 53.7812 285.613 52.356 285.613C51.0229 285.613 50.2231 285.018 50.0898 283.982H51.2075C51.2998 284.485 51.6895 284.731 52.3457 284.731C53.0532 284.731 53.5044 284.444 53.5146 283.972C53.5044 283.613 53.2378 283.377 52.6533 283.244L51.7817 283.06C50.7769 282.834 50.2539 282.301 50.2539 281.532C50.2539 280.537 51.1152 279.86 52.4072 279.86C53.6479 279.86 54.417 280.496 54.5298 281.45H53.4736ZM58.3032 279.932V280.804H57.165V283.859C57.165 284.485 57.4829 284.598 57.8315 284.608C57.9854 284.608 58.2314 284.587 58.3853 284.577V285.531C58.2314 285.551 57.9956 285.572 57.6982 285.572C56.8369 285.572 56.0679 285.1 56.0781 284.085V280.804H55.2578V279.932H56.0781V278.599H57.165V279.932H58.3032ZM59.1133 283.931C59.1133 282.66 60.1899 282.332 61.1948 282.26C61.564 282.234 62.3997 282.188 62.6611 282.178L62.6509 281.737C62.6509 281.111 62.2715 280.742 61.5229 280.742C60.877 280.742 60.4873 281.04 60.3745 281.45H59.2876C59.3901 280.527 60.2515 279.86 61.564 279.86C62.4458 279.86 63.748 280.188 63.748 281.798V285.5H62.6816V284.741H62.6406C62.4253 285.162 61.9126 285.623 60.9897 285.623C59.9336 285.623 59.1133 285.018 59.1133 283.931ZM60.1797 283.941C60.1797 284.475 60.6206 284.751 61.2358 284.751C62.1279 284.751 62.6611 284.157 62.6611 283.49V282.978L61.3486 283.07C60.6309 283.121 60.1797 283.388 60.1797 283.941ZM66.168 282.198V285.5H65.0708V279.932H66.127V280.845H66.1885C66.4551 280.25 66.9985 279.86 67.8291 279.86C68.9775 279.86 69.7261 280.578 69.7261 281.962V285.5H68.6392V282.096C68.6392 281.286 68.1982 280.804 67.46 280.804C66.7114 280.804 66.168 281.306 66.168 282.198ZM73.4175 285.613C71.7974 285.613 70.813 284.413 70.813 282.742C70.813 281.04 71.8281 279.86 73.397 279.86C74.6685 279.86 75.5913 280.609 75.7041 281.737H74.6377C74.5249 281.214 74.1045 280.773 73.4175 280.773C72.5151 280.773 71.9102 281.521 71.9102 282.711C71.9102 283.931 72.5049 284.68 73.4175 284.68C74.0327 284.68 74.5044 284.341 74.6377 283.736H75.7041C75.5811 284.813 74.73 285.613 73.4175 285.613ZM76.7397 285.5V279.932H77.8369V285.5H76.7397ZM77.2935 279.071C76.9141 279.071 76.5962 278.784 76.5962 278.425C76.5962 278.066 76.9141 277.779 77.2935 277.779C77.6626 277.779 77.9805 278.066 77.9805 278.425C77.9805 278.784 77.6626 279.071 77.2935 279.071ZM78.9136 283.931C78.9136 282.66 79.9902 282.332 80.9951 282.26C81.3643 282.234 82.2 282.188 82.4614 282.178L82.4512 281.737C82.4512 281.111 82.0718 280.742 81.3232 280.742C80.6772 280.742 80.2876 281.04 80.1748 281.45H79.0879C79.1904 280.527 80.0518 279.86 81.3643 279.86C82.2461 279.86 83.5483 280.188 83.5483 281.798V285.5H82.4819V284.741H82.4409C82.2256 285.162 81.7129 285.623 80.79 285.623C79.7339 285.623 78.9136 285.018 78.9136 283.931ZM79.98 283.941C79.98 284.475 80.4209 284.751 81.0361 284.751C81.9282 284.751 82.4614 284.157 82.4614 283.49V282.978L81.1489 283.07C80.4312 283.121 79.98 283.388 79.98 283.941ZM87.9985 281.45C87.896 281.009 87.5474 280.722 86.9424 280.722C86.3169 280.722 85.8657 281.05 85.876 281.47C85.8657 281.798 86.1323 282.034 86.7476 282.178L87.6294 282.383C88.6548 282.608 89.147 283.101 89.1572 283.89C89.147 284.895 88.3062 285.613 86.8809 285.613C85.5479 285.613 84.748 285.018 84.6147 283.982H85.7324C85.8247 284.485 86.2144 284.731 86.8706 284.731C87.5781 284.731 88.0293 284.444 88.0396 283.972C88.0293 283.613 87.7627 283.377 87.1782 283.244L86.3066 283.06C85.3018 282.834 84.7788 282.301 84.7788 281.532C84.7788 280.537 85.6401 279.86 86.9321 279.86C88.1729 279.86 88.9419 280.496 89.0547 281.45H87.9985ZM94.8687 285.613C93.5254 285.613 92.541 284.526 92.541 282.731C92.541 280.917 93.5356 279.86 94.8789 279.86C95.9146 279.86 96.2939 280.486 96.4888 280.834H96.54V278.076H97.6372V285.5H96.5708V284.628H96.4888C96.2837 284.998 95.8838 285.613 94.8687 285.613ZM95.1147 284.68C96.0479 284.68 96.5708 283.88 96.5708 282.711C96.5708 281.552 96.0581 280.793 95.1147 280.793C94.1406 280.793 93.6587 281.614 93.6587 282.711C93.6587 283.829 94.1611 284.68 95.1147 284.68ZM101.462 285.613C99.8213 285.613 98.8164 284.485 98.8164 282.752C98.8164 281.04 99.8418 279.86 101.39 279.86C102.662 279.86 103.861 280.65 103.861 282.66V283.049H99.9033C99.9341 284.105 100.554 284.71 101.472 284.71C102.098 284.71 102.498 284.444 102.682 284.105H103.79C103.543 285.008 102.682 285.613 101.462 285.613ZM99.9136 282.229H102.785C102.785 281.378 102.241 280.763 101.4 280.763C100.524 280.763 99.9546 281.439 99.9136 282.229ZM107.604 285.5V278.076H110.25C111.972 278.076 112.823 279.112 112.823 280.486C112.823 281.85 111.972 282.896 110.25 282.896H108.732V285.5H107.604ZM108.732 281.932H110.137C111.234 281.932 111.685 281.316 111.685 280.486C111.685 279.645 111.234 279.04 110.137 279.04H108.732V281.932ZM113.613 283.931C113.613 282.66 114.689 282.332 115.694 282.26C116.063 282.234 116.899 282.188 117.161 282.178L117.15 281.737C117.15 281.111 116.771 280.742 116.022 280.742C115.376 280.742 114.987 281.04 114.874 281.45H113.787C113.89 280.527 114.751 279.86 116.063 279.86C116.945 279.86 118.248 280.188 118.248 281.798V285.5H117.181V284.741H117.14C116.925 285.162 116.412 285.623 115.489 285.623C114.433 285.623 113.613 285.018 113.613 283.931ZM114.679 283.941C114.679 284.475 115.12 284.751 115.735 284.751C116.627 284.751 117.161 284.157 117.161 283.49V282.978L115.848 283.07C115.13 283.121 114.679 283.388 114.679 283.941ZM119.57 285.5V279.932H120.626V280.814H120.688C120.893 280.219 121.447 279.85 122.103 279.85C122.236 279.85 122.452 279.86 122.564 279.871V280.917C122.472 280.896 122.216 280.855 121.99 280.855C121.231 280.855 120.667 281.378 120.667 282.106V285.5H119.57ZM123.067 283.931C123.067 282.66 124.144 282.332 125.148 282.26C125.518 282.234 126.353 282.188 126.615 282.178L126.604 281.737C126.604 281.111 126.225 280.742 125.477 280.742C124.831 280.742 124.441 281.04 124.328 281.45H123.241C123.344 280.527 124.205 279.86 125.518 279.86C126.399 279.86 127.702 280.188 127.702 281.798V285.5H126.635V284.741H126.594C126.379 285.162 125.866 285.623 124.943 285.623C123.887 285.623 123.067 285.018 123.067 283.931ZM124.133 283.941C124.133 284.475 124.574 284.751 125.189 284.751C126.082 284.751 126.615 284.157 126.615 283.49V282.978L125.302 283.07C124.584 283.121 124.133 283.388 124.133 283.941ZM131.106 285.613C129.763 285.613 128.778 284.526 128.778 282.731C128.778 280.917 129.773 279.86 131.116 279.86C132.152 279.86 132.531 280.486 132.726 280.834H132.777V278.076H133.875V285.5H132.808V284.628H132.726C132.521 284.998 132.121 285.613 131.106 285.613ZM131.352 284.68C132.285 284.68 132.808 283.88 132.808 282.711C132.808 281.552 132.295 280.793 131.352 280.793C130.378 280.793 129.896 281.614 129.896 282.711C129.896 283.829 130.398 284.68 131.352 284.68ZM135.043 283.931C135.043 282.66 136.12 282.332 137.125 282.26C137.494 282.234 138.33 282.188 138.591 282.178L138.581 281.737C138.581 281.111 138.202 280.742 137.453 280.742C136.807 280.742 136.417 281.04 136.305 281.45H135.218C135.32 280.527 136.182 279.86 137.494 279.86C138.376 279.86 139.678 280.188 139.678 281.798V285.5H138.612V284.741H138.571C138.355 285.162 137.843 285.623 136.92 285.623C135.864 285.623 135.043 285.018 135.043 283.931ZM136.11 283.941C136.11 284.475 136.551 284.751 137.166 284.751C138.058 284.751 138.591 284.157 138.591 283.49V282.978L137.279 283.07C136.561 283.121 136.11 283.388 136.11 283.941Z" fill="white"/>
<path opacity="0.6" d="M40.7588 312.5V305.076H45.4141V306.05H41.8867V308.296H45.168V309.26H41.8867V311.526H45.4551V312.5H40.7588ZM49.8335 308.45C49.731 308.009 49.3823 307.722 48.7773 307.722C48.1519 307.722 47.7007 308.05 47.7109 308.47C47.7007 308.798 47.9673 309.034 48.5825 309.178L49.4644 309.383C50.4897 309.608 50.9819 310.101 50.9922 310.89C50.9819 311.895 50.1411 312.613 48.7158 312.613C47.3828 312.613 46.583 312.018 46.4497 310.982H47.5674C47.6597 311.485 48.0493 311.731 48.7056 311.731C49.4131 311.731 49.8643 311.444 49.8745 310.972C49.8643 310.613 49.5977 310.377 49.0132 310.244L48.1416 310.06C47.1367 309.834 46.6138 309.301 46.6138 308.532C46.6138 307.537 47.4751 306.86 48.7671 306.86C50.0078 306.86 50.7769 307.496 50.8896 308.45H49.8335ZM54.6631 306.932V307.804H53.5249V310.859C53.5249 311.485 53.8428 311.598 54.1914 311.608C54.3452 311.608 54.5913 311.587 54.7451 311.577V312.531C54.5913 312.551 54.3555 312.572 54.0581 312.572C53.1968 312.572 52.4277 312.1 52.438 311.085V307.804H51.6177V306.932H52.438V305.599H53.5249V306.932H54.6631ZM55.4731 310.931C55.4731 309.66 56.5498 309.332 57.5547 309.26C57.9238 309.234 58.7595 309.188 59.021 309.178L59.0107 308.737C59.0107 308.111 58.6313 307.742 57.8828 307.742C57.2368 307.742 56.8472 308.04 56.7344 308.45H55.6475C55.75 307.527 56.6113 306.86 57.9238 306.86C58.8057 306.86 60.1079 307.188 60.1079 308.798V312.5H59.0415V311.741H59.0005C58.7852 312.162 58.2725 312.623 57.3496 312.623C56.2935 312.623 55.4731 312.018 55.4731 310.931ZM56.5396 310.941C56.5396 311.475 56.9805 311.751 57.5957 311.751C58.4878 311.751 59.021 311.157 59.021 310.49V309.978L57.7085 310.07C56.9907 310.121 56.5396 310.388 56.5396 310.941ZM63.7891 312.613C62.1689 312.613 61.1846 311.413 61.1846 309.742C61.1846 308.04 62.1997 306.86 63.7686 306.86C65.04 306.86 65.9629 307.609 66.0757 308.737H65.0093C64.8965 308.214 64.4761 307.773 63.7891 307.773C62.8867 307.773 62.2817 308.521 62.2817 309.711C62.2817 310.931 62.8765 311.68 63.7891 311.68C64.4043 311.68 64.876 311.341 65.0093 310.736H66.0757C65.9526 311.813 65.1016 312.613 63.7891 312.613ZM67.1113 312.5V306.932H68.2085V312.5H67.1113ZM67.665 306.071C67.2856 306.071 66.9678 305.784 66.9678 305.425C66.9678 305.066 67.2856 304.779 67.665 304.779C68.0342 304.779 68.3521 305.066 68.3521 305.425C68.3521 305.784 68.0342 306.071 67.665 306.071ZM71.8999 312.613C70.3208 312.613 69.2954 311.464 69.2954 309.742C69.2954 308.009 70.3208 306.86 71.8999 306.86C73.4688 306.86 74.4941 308.009 74.4941 309.742C74.4941 311.464 73.4688 312.613 71.8999 312.613ZM71.8999 311.7C72.9048 311.7 73.3867 310.808 73.3867 309.742C73.3867 308.675 72.9048 307.763 71.8999 307.763C70.8745 307.763 70.3926 308.675 70.3926 309.742C70.3926 310.808 70.8745 311.7 71.8999 311.7ZM76.668 309.198V312.5H75.5708V306.932H76.627V307.845H76.6885C76.9551 307.25 77.4985 306.86 78.3291 306.86C79.4775 306.86 80.2261 307.578 80.2261 308.962V312.5H79.1392V309.096C79.1392 308.286 78.6982 307.804 77.96 307.804C77.2114 307.804 76.668 308.306 76.668 309.198ZM81.3027 310.931C81.3027 309.66 82.3794 309.332 83.3843 309.26C83.7534 309.234 84.5891 309.188 84.8506 309.178L84.8403 308.737C84.8403 308.111 84.4609 307.742 83.7124 307.742C83.0664 307.742 82.6768 308.04 82.564 308.45H81.4771C81.5796 307.527 82.4409 306.86 83.7534 306.86C84.6353 306.86 85.9375 307.188 85.9375 308.798V312.5H84.8711V311.741H84.8301C84.6147 312.162 84.1021 312.623 83.1792 312.623C82.123 312.623 81.3027 312.018 81.3027 310.931ZM82.3691 310.941C82.3691 311.475 82.8101 311.751 83.4253 311.751C84.3174 311.751 84.8506 311.157 84.8506 310.49V309.978L83.5381 310.07C82.8203 310.121 82.3691 310.388 82.3691 310.941ZM87.2603 312.5V306.932H88.3164V307.845H88.3779C88.6138 307.219 89.1572 306.86 89.8955 306.86C90.6338 306.86 91.1567 307.229 91.3926 307.845H91.4541C91.7207 307.24 92.3154 306.86 93.1255 306.86C94.1304 306.86 94.8481 307.496 94.8481 308.768V312.5H93.751V308.87C93.751 308.122 93.2793 307.804 92.7051 307.804C91.9976 307.804 91.5977 308.286 91.5977 308.952V312.5H90.5107V308.809C90.5107 308.204 90.0903 307.804 89.4956 307.804C88.8804 307.804 88.3574 308.316 88.3574 309.065V312.5H87.2603ZM96.1709 312.5V306.932H97.2681V312.5H96.1709ZM96.7246 306.071C96.3452 306.071 96.0273 305.784 96.0273 305.425C96.0273 305.066 96.3452 304.779 96.7246 304.779C97.0938 304.779 97.4116 305.066 97.4116 305.425C97.4116 305.784 97.0938 306.071 96.7246 306.071ZM101 312.613C99.3599 312.613 98.355 311.485 98.355 309.752C98.355 308.04 99.3804 306.86 100.929 306.86C102.2 306.86 103.4 307.65 103.4 309.66V310.049H99.4419C99.4727 311.105 100.093 311.71 101.011 311.71C101.636 311.71 102.036 311.444 102.221 311.105H103.328C103.082 312.008 102.221 312.613 101 312.613ZM99.4521 309.229H102.323C102.323 308.378 101.78 307.763 100.939 307.763C100.062 307.763 99.4932 308.439 99.4521 309.229ZM105.584 309.198V312.5H104.487V306.932H105.543V307.845H105.604C105.871 307.25 106.415 306.86 107.245 306.86C108.394 306.86 109.142 307.578 109.142 308.962V312.5H108.055V309.096C108.055 308.286 107.614 307.804 106.876 307.804C106.127 307.804 105.584 308.306 105.584 309.198ZM113.08 306.932V307.804H111.941V310.859C111.941 311.485 112.259 311.598 112.608 311.608C112.762 311.608 113.008 311.587 113.162 311.577V312.531C113.008 312.551 112.772 312.572 112.475 312.572C111.613 312.572 110.844 312.1 110.854 311.085V307.804H110.034V306.932H110.854V305.599H111.941V306.932H113.08ZM116.443 312.613C114.864 312.613 113.838 311.464 113.838 309.742C113.838 308.009 114.864 306.86 116.443 306.86C118.012 306.86 119.037 308.009 119.037 309.742C119.037 311.464 118.012 312.613 116.443 312.613ZM116.443 311.7C117.448 311.7 117.93 310.808 117.93 309.742C117.93 308.675 117.448 307.763 116.443 307.763C115.417 307.763 114.936 308.675 114.936 309.742C114.936 310.808 115.417 311.7 116.443 311.7Z" fill="white"/>
</g>
<path d="M29.5 83.625V102.375" stroke="#207FD6" stroke-width="1.5" stroke-linecap="round"/>
</g>
</g>
<rect x="285" y="28" width="870" height="610" rx="21.0042" fill="#1A1A1A"/>
<rect x="396" y="92" width="539" height="23" rx="11.5" fill="#141414"/>
<rect x="396" y="143" width="112" height="16" rx="8" fill="#141414"/>
<rect x="398" y="369" width="112" height="16" rx="8" fill="#141414"/>
<rect x="396" y="193" width="374" height="97" rx="16" fill="#141414"/>
<rect x="396" y="424" width="374" height="97" rx="16" fill="#141414"/>
<rect x="396" y="329" width="229" height="13" rx="6.5" fill="#141414"/>
</g>
<defs>
<clipPath id="clip0_521_1140">
<rect width="1155" height="602" fill="white"/>
</clipPath>
<clipPath id="clip1_521_1140">
<rect width="186" height="321" fill="white" transform="translate(16)"/>
</clipPath>
<clipPath id="clip2_521_1140">
<rect width="186" height="267" fill="white" transform="translate(16 54)"/>
</clipPath>
<clipPath id="clip3_521_1140">
<rect width="168" height="267" fill="white" transform="translate(34 54)"/>
</clipPath>
</defs>
</svg>
