<svg width="60" height="60" viewBox="0 0 60 60" fill="none" xmlns="http://www.w3.org/2000/svg">
<rect width="60" height="60" rx="16" fill="black"/>
<path d="M12.166 13.6495C12.166 13.1681 12.5563 12.7778 13.0377 12.7778H23.1974C23.6788 12.7778 24.0691 13.1681 24.0691 13.6495V23.8091C24.0691 24.2905 23.6788 24.6808 23.1974 24.6808H13.0377C12.5563 24.6808 12.166 24.2905 12.166 23.8091V13.6495Z" fill="white"/>
<path fill-rule="evenodd" clip-rule="evenodd" d="M36.3325 12.7778C36.1013 12.7778 35.8796 12.8697 35.7161 13.0331L24.3237 24.4255C24.1602 24.5889 24.0684 24.8107 24.0684 25.0418L24.0684 36.5837V46.3822C24.0684 47.1588 25.0073 47.5477 25.5565 46.9986L35.7161 36.839C35.8796 36.6756 35.9714 36.4538 35.9714 36.2226L35.9714 25.5525C35.9714 25.0711 36.3617 24.6808 36.8431 24.6808H47.0028C47.4842 24.6808 47.8745 24.2905 47.8745 23.8091V13.6495C47.8745 13.1681 47.4842 12.7778 47.0028 12.7778H36.3325Z" fill="white"/>
</svg>
