<svg width="388" height="78" viewBox="0 0 388 78" fill="none" xmlns="http://www.w3.org/2000/svg">
<path d="M360.025 77.9996C343.123 77.9996 331.786 65.1921 331.786 49.4451C331.786 33.6982 343.648 20.6807 360.025 20.6807C376.402 20.6807 387.74 33.6982 387.74 49.4451C387.74 51.0198 387.635 52.6995 387.32 54.4842H346.483C348.058 60.8879 352.887 65.4021 360.025 65.4021C366.114 65.4021 370.838 62.2527 373.358 58.0535L384.381 66.3469C379.971 73.1706 370.838 77.9996 360.025 77.9996ZM346.483 43.8812H373.463C371.888 37.7924 366.744 32.8583 359.815 32.8583C353.097 32.8583 348.058 37.3725 346.483 43.8812Z" fill="white"/>
<path d="M297.787 76.6354L275.006 22.0459H291.803L302.721 53.2249C303.666 55.8494 304.506 59.1038 305.031 61.9382C305.555 59.1038 306.395 55.8494 307.34 53.2249L318.258 22.0459H334.74L312.064 76.6354H297.787Z" fill="white"/>
<path d="M256.163 76.6353V22.0458H270.335V76.6353H256.163ZM254.693 9.13325C254.693 4.61912 258.368 0.839844 263.197 0.839844C268.131 0.839844 271.7 4.61912 271.7 9.13325C271.7 13.8573 268.131 17.5316 263.197 17.5316C258.368 17.5316 254.693 13.7524 254.693 9.13325Z" fill="white"/>
<path d="M220.794 76.6354V22.0459H234.546V32.4389C236.436 24.5654 242 20.2613 251.448 20.7862V34.1186H249.453C241.265 34.1186 234.966 39.5775 234.966 48.7108V76.6354H220.794Z" fill="white"/>
<path d="M182.538 78C167.526 78 155.559 65.2974 155.559 49.5505C155.559 33.8035 167.526 20.891 182.538 20.891C191.882 20.891 196.816 24.6703 199.755 30.4441V0H213.927V76.6353H200.175V67.712C197.236 73.9058 192.302 78 182.538 78ZM169.731 49.4455C169.731 57.7389 175.82 65.1925 184.848 65.1925C194.191 65.1925 200.175 58.0538 200.175 49.5505C200.175 41.0471 194.191 33.6985 184.848 33.6985C175.82 33.6985 169.731 40.9421 169.731 49.4455Z" fill="white"/>
<path d="M123.024 77.9996C106.122 77.9996 93.9443 65.1921 93.9443 49.4451C93.9443 33.6982 106.122 20.7856 123.024 20.7856C139.926 20.7856 152.103 33.6982 152.103 49.4451C152.103 65.1921 139.926 77.9996 123.024 77.9996ZM108.117 49.4451C108.117 57.9485 113.995 65.0871 123.024 65.0871C132.052 65.0871 137.931 57.9485 137.931 49.4451C137.931 40.9418 132.052 33.6982 123.024 33.6982C113.995 33.6982 108.117 40.9418 108.117 49.4451Z" fill="white"/>
<path d="M62.8255 77.9996C45.9238 77.9996 34.5859 65.1921 34.5859 49.4451C34.5859 33.6982 46.4487 20.6807 62.8255 20.6807C79.2024 20.6807 90.5402 33.6982 90.5402 49.4451C90.5402 51.0198 90.4352 52.6995 90.1203 54.4842H49.2831C50.8578 60.8879 55.6869 65.4021 62.8255 65.4021C68.9143 65.4021 73.6384 62.2527 76.158 58.0535L87.1808 66.3469C82.7717 73.1706 73.6384 77.9996 62.8255 77.9996ZM49.2831 43.8812H76.2629C74.6882 37.7924 69.5442 32.8583 62.6156 32.8583C55.8968 32.8583 50.8578 37.3725 49.2831 43.8812Z" fill="white"/>
<path d="M24.3553 76.6348C13.5424 76.6348 7.66353 71.5958 7.66353 59.7331V34.118H0V22.0453H7.66353V11.0225L21.8358 9.55273V22.0453H33.3836V34.118H21.8358V58.9982C21.8358 62.4626 23.5155 64.0373 26.245 64.0373H32.1238V76.6348H24.3553Z" fill="white"/>
</svg>
