<svg width="81" height="78" viewBox="0 0 81 78" fill="none" xmlns="http://www.w3.org/2000/svg">
<path d="M0 1.9721C0 0.88294 0.882942 0 1.97211 0H24.9565C26.0456 0 26.9286 0.882937 26.9286 1.97209V24.9563C26.9286 26.0455 26.0456 26.9284 24.9565 26.9284H1.97211C0.882945 26.9284 0 26.0455 0 24.9563V1.9721Z" fill="white"/>
<path fill-rule="evenodd" clip-rule="evenodd" d="M54.6722 0C54.1492 0 53.6475 0.207772 53.2777 0.577611L27.5044 26.3507C27.1345 26.7206 26.9268 27.2222 26.9268 27.7452L26.9268 53.8567V76.024C26.9268 77.7809 29.051 78.6608 30.2934 77.4184L53.2777 54.4343C53.6476 54.0644 53.8553 53.5628 53.8553 53.0398L53.8553 28.9004C53.8553 27.8113 54.7383 26.9283 55.8274 26.9283H78.8118C79.9009 26.9283 80.7839 26.0454 80.7839 24.9562V1.97209C80.7839 0.882935 79.9009 0 78.8118 0H54.6722Z" fill="white"/>
</svg>
