<svg width="147" height="24" viewBox="0 0 147 24" fill="none" xmlns="http://www.w3.org/2000/svg">
<g clip-path="url(#clip0_273_753)">
<path d="M0 0.606799C0 0.271674 0.271675 0 0.606803 0H7.67893C8.01405 0 8.28573 0.271673 8.28573 0.606798V7.67886C8.28573 8.01399 8.01406 8.28566 7.67893 8.28566H0.606804C0.271676 8.28566 0 8.01399 0 7.67886V0.606799Z" fill="white"/>
<path fill-rule="evenodd" clip-rule="evenodd" d="M16.8227 0C16.6618 0 16.5074 0.0639299 16.3936 0.177726L8.46337 8.10791C8.34958 8.22171 8.28564 8.37605 8.28564 8.53699L8.28565 16.5713V23.392C8.28565 23.9326 8.93926 24.2033 9.32152 23.8211L16.3936 16.749C16.5074 16.6352 16.5714 16.4809 16.5714 16.3199L16.5714 8.89244C16.5714 8.55731 16.8431 8.28564 17.1782 8.28564H24.2503C24.5854 8.28564 24.8571 8.01397 24.8571 7.67884V0.606797C24.8571 0.271672 24.5854 0 24.2503 0H16.8227Z" fill="white"/>
<path d="M44.7314 7.57299V11.2947H41.3399V17.5375C41.3399 18.0578 41.4699 18.4379 41.73 18.678C41.9902 18.9181 42.3703 19.0582 42.8706 19.0982C43.3708 19.1182 43.9911 19.1082 44.7314 19.0682V22.5798C42.1102 22.8799 40.2394 22.6398 39.1189 21.8595C38.0184 21.0591 37.4681 19.6185 37.4681 17.5375V11.2947H34.8569V7.57299H37.4681V3.37108H41.3399V7.57299H44.7314Z" fill="white"/>
<path d="M61.1287 16.6671H49.8136C50.3138 18.548 51.7244 19.4884 54.0455 19.4884C55.5261 19.4884 56.6466 18.9882 57.407 17.9877L60.5284 19.7885C59.0477 21.9295 56.8667 23 53.9854 23C51.5043 23 49.5134 22.2497 48.0127 20.749C46.5121 19.2483 45.7617 17.3574 45.7617 15.0764C45.7617 12.8354 46.5021 10.9545 47.9827 9.43383C49.4434 7.91314 51.3442 7.1528 53.6853 7.1528C55.9063 7.1528 57.7171 7.91314 59.1178 9.43383C60.5584 10.9545 61.2787 12.8354 61.2787 15.0764C61.2787 15.4966 61.2287 16.0268 61.1287 16.6671ZM49.7535 13.6658H57.407C57.1869 12.6853 56.7367 11.935 56.0564 11.4147C55.3961 10.8945 54.6057 10.6344 53.6853 10.6344C52.6448 10.6344 51.7844 10.9045 51.1041 11.4447C50.4238 11.965 49.9736 12.7053 49.7535 13.6658Z" fill="white"/>
<path d="M76.2 20.719C74.6793 22.2397 72.7984 23 70.5574 23C68.3164 23 66.4355 22.2397 64.9148 20.719C63.3942 19.1983 62.6338 17.3174 62.6338 15.0764C62.6338 12.8554 63.3942 10.9845 64.9148 9.46385C66.4555 7.92315 68.3364 7.1528 70.5574 7.1528C72.7784 7.1528 74.6593 7.92315 76.2 9.46385C77.7407 11.0045 78.511 12.8754 78.511 15.0764C78.511 17.2974 77.7407 19.1783 76.2 20.719ZM67.6461 18.0477C68.4264 18.8281 69.3969 19.2183 70.5574 19.2183C71.7179 19.2183 72.6884 18.8281 73.4687 18.0477C74.2491 17.2674 74.6393 16.2769 74.6393 15.0764C74.6393 13.8759 74.2491 12.8854 73.4687 12.105C72.6884 11.3247 71.7179 10.9345 70.5574 10.9345C69.3969 10.9345 68.4264 11.3247 67.6461 12.105C66.8857 12.9054 66.5056 13.8959 66.5056 15.0764C66.5056 16.2569 66.8857 17.2474 67.6461 18.0477Z" fill="white"/>
<path d="M92.1597 9.34379V1.57026H96.0314V22.5798H92.1597V20.809C91.0192 22.2697 89.3984 23 87.2975 23C85.2766 23 83.5458 22.2397 82.1051 20.719C80.6845 19.1783 79.9742 17.2974 79.9742 15.0764C79.9742 12.8754 80.6845 11.0045 82.1051 9.46385C83.5458 7.92315 85.2766 7.1528 87.2975 7.1528C89.3984 7.1528 91.0192 7.88313 92.1597 9.34379ZM85.0165 18.1378C85.8368 18.9181 86.8373 19.3083 88.0178 19.3083C89.2184 19.3083 90.2088 18.9181 90.9892 18.1378C91.7695 17.3374 92.1597 16.317 92.1597 15.0764C92.1597 13.8358 91.7695 12.8254 90.9892 12.045C90.2088 11.2447 89.2184 10.8445 88.0178 10.8445C86.8173 10.8445 85.8168 11.2447 85.0165 12.045C84.2361 12.8254 83.8459 13.8358 83.8459 15.0764C83.8459 16.317 84.2361 17.3374 85.0165 18.1378Z" fill="white"/>
<path d="M102.994 7.57299V10.1542C103.334 9.21373 103.914 8.50341 104.735 8.02319C105.555 7.52296 106.495 7.27285 107.556 7.27285V11.5948C106.375 11.4347 105.315 11.6749 104.375 12.3151C103.454 12.9354 102.994 13.9659 102.994 15.4065V22.5798H99.1221V7.57299H102.994Z" fill="white"/>
<path d="M111.291 5.77217C110.651 5.77217 110.09 5.54207 109.61 5.08186C109.15 4.60164 108.92 4.04138 108.92 3.40109C108.92 2.7608 109.15 2.20055 109.61 1.72033C110.09 1.24011 110.651 1 111.291 1C111.951 1 112.512 1.24011 112.972 1.72033C113.452 2.20055 113.692 2.7608 113.692 3.40109C113.692 4.04138 113.452 4.60164 112.972 5.08186C112.512 5.54207 111.951 5.77217 111.291 5.77217ZM113.242 22.5798H109.37V7.57299H113.242V22.5798Z" fill="white"/>
<path d="M122.548 18.0778L126.21 7.57299H130.472L124.769 22.5798H120.357L114.655 7.57299H118.917L122.548 18.0778Z" fill="white"/>
<path d="M145.889 16.6671H134.574C135.074 18.548 136.485 19.4884 138.806 19.4884C140.286 19.4884 141.407 18.9882 142.167 17.9877L145.289 19.7885C143.808 21.9295 141.627 23 138.746 23C136.265 23 134.274 22.2497 132.773 20.749C131.272 19.2483 130.522 17.3574 130.522 15.0764C130.522 12.8354 131.262 10.9545 132.743 9.43383C134.204 7.91314 136.105 7.1528 138.446 7.1528C140.667 7.1528 142.477 7.91314 143.878 9.43383C145.319 10.9545 146.039 12.8354 146.039 15.0764C146.039 15.4966 145.989 16.0268 145.889 16.6671ZM134.514 13.6658H142.167C141.947 12.6853 141.497 11.935 140.817 11.4147C140.156 10.8945 139.366 10.6344 138.446 10.6344C137.405 10.6344 136.545 10.9045 135.864 11.4447C135.184 11.965 134.734 12.7053 134.514 13.6658Z" fill="white"/>
</g>
<defs>
<clipPath id="clip0_273_753">
<rect width="146.039" height="24.0001" fill="white"/>
</clipPath>
</defs>
</svg>
