<svg width="60" height="60" viewBox="0 0 60 60" fill="none" xmlns="http://www.w3.org/2000/svg">
<rect width="60" height="60" rx="14" fill="url(#paint0_linear_38_42)"/>
<path d="M9.95947 11.6284C9.95947 11.088 10.3975 10.6499 10.9379 10.6499H22.3417C22.8821 10.6499 23.3201 11.088 23.3201 11.6284V23.032C23.3201 23.5724 22.8821 24.0105 22.3417 24.0105H10.9379C10.3975 24.0105 9.95947 23.5724 9.95947 23.032V11.6284Z" fill="white"/>
<path fill-rule="evenodd" clip-rule="evenodd" d="M37.0853 10.6499C36.8258 10.6499 36.5769 10.753 36.3934 10.9365L23.6059 23.7238C23.4224 23.9073 23.3193 24.1562 23.3193 24.4157L23.3193 37.371V48.3693C23.3193 49.241 24.3733 49.6776 24.9897 49.0612L36.3934 37.6575C36.5769 37.474 36.68 37.2252 36.68 36.9657L36.68 24.9889C36.68 24.4485 37.1181 24.0104 37.6585 24.0104H49.0622C49.6026 24.0104 50.0407 23.5724 50.0407 23.032V11.6284C50.0407 11.088 49.6026 10.6499 49.0622 10.6499H37.0853Z" fill="white"/>
<defs>
<linearGradient id="paint0_linear_38_42" x1="30" y1="0" x2="30" y2="60" gradientUnits="userSpaceOnUse">
<stop stop-color="#121212"/>
<stop offset="1"/>
</linearGradient>
</defs>
</svg>
